<svg width="1344" height="963" viewBox="0 0 1344 963" fill="none" xmlns="http://www.w3.org/2000/svg">
<g id="HeaderSVG">
<g id="DotGridTop">
<ellipse id="Ellipse 1" cx="99.7084" cy="533.987" rx="3.02147" ry="2.98717" fill="#AA95E4"/>
<ellipse id="Ellipse 2" cx="99.7084" cy="565.054" rx="3.02147" ry="2.98717" fill="#AA95E4"/>
<ellipse id="Ellipse 3" cx="99.7084" cy="594.925" rx="3.02147" ry="2.98717" fill="#AA95E4"/>
<ellipse id="Ellipse 4" cx="99.7084" cy="625.992" rx="3.02147" ry="2.98717" fill="#AA95E4"/>
<ellipse id="Ellipse 5" cx="99.7084" cy="655.864" rx="3.02147" ry="2.98717" fill="#AA95E4"/>
<ellipse id="Ellipse 6" cx="99.7084" cy="686.931" rx="3.02147" ry="2.98717" fill="#AA95E4"/>
<ellipse id="Ellipse 7" cx="99.7084" cy="716.802" rx="3.02147" ry="2.98717" fill="#AA95E4"/>
<ellipse id="Ellipse 8" cx="99.7084" cy="747.869" rx="3.02147" ry="2.98717" fill="#AA95E4"/>
<ellipse id="Ellipse 9" cx="123.88" cy="533.987" rx="3.02147" ry="2.98717" fill="#AA95E4"/>
<ellipse id="Ellipse 10" cx="123.88" cy="565.054" rx="3.02147" ry="2.98717" fill="#AA95E4"/>
<ellipse id="Ellipse 11" cx="123.88" cy="594.925" rx="3.02147" ry="2.98717" fill="#AA95E4"/>
<ellipse id="Ellipse 12" cx="123.88" cy="625.992" rx="3.02147" ry="2.98717" fill="#AA95E4"/>
<ellipse id="Ellipse 13" cx="123.88" cy="655.864" rx="3.02147" ry="2.98717" fill="#AA95E4"/>
<ellipse id="Ellipse 14" cx="123.88" cy="686.931" rx="3.02147" ry="2.98717" fill="#AA95E4"/>
<ellipse id="Ellipse 15" cx="123.88" cy="716.802" rx="3.02147" ry="2.98717" fill="#AA95E4"/>
<ellipse id="Ellipse 16" cx="123.88" cy="747.869" rx="3.02147" ry="2.98717" fill="#AA95E4"/>
<ellipse id="Ellipse 17" cx="148.052" cy="533.987" rx="3.02147" ry="2.98717" fill="#AA95E4"/>
<ellipse id="Ellipse 18" cx="148.052" cy="565.054" rx="3.02147" ry="2.98717" fill="#AA95E4"/>
<ellipse id="Ellipse 19" cx="148.052" cy="594.925" rx="3.02147" ry="2.98717" fill="#AA95E4"/>
<ellipse id="Ellipse 20" cx="148.052" cy="625.992" rx="3.02147" ry="2.98717" fill="#AA95E4"/>
<ellipse id="Ellipse 21" cx="148.052" cy="655.864" rx="3.02147" ry="2.98717" fill="#AA95E4"/>
<ellipse id="Ellipse 22" cx="148.052" cy="686.931" rx="3.02147" ry="2.98717" fill="#AA95E4"/>
<ellipse id="Ellipse 23" cx="148.052" cy="716.802" rx="3.02147" ry="2.98717" fill="#AA95E4"/>
<ellipse id="Ellipse 24" cx="148.052" cy="747.869" rx="3.02147" ry="2.98717" fill="#AA95E4"/>
<ellipse id="Ellipse 25" cx="172.224" cy="533.987" rx="3.02147" ry="2.98717" fill="#AA95E4"/>
<ellipse id="Ellipse 26" cx="172.223" cy="565.054" rx="3.02147" ry="2.98717" fill="#AA95E4"/>
<ellipse id="Ellipse 27" cx="172.223" cy="594.925" rx="3.02147" ry="2.98717" fill="#AA95E4"/>
<ellipse id="Ellipse 28" cx="172.223" cy="625.992" rx="3.02147" ry="2.98717" fill="#AA95E4"/>
<ellipse id="Ellipse 29" cx="172.223" cy="655.864" rx="3.02147" ry="2.98717" fill="#AA95E4"/>
<ellipse id="Ellipse 30" cx="172.223" cy="686.931" rx="3.02147" ry="2.98717" fill="#AA95E4"/>
<ellipse id="Ellipse 31" cx="172.223" cy="716.802" rx="3.02147" ry="2.98717" fill="#AA95E4"/>
<ellipse id="Ellipse 32" cx="172.223" cy="747.869" rx="3.02147" ry="2.98717" fill="#AA95E4"/>
<ellipse id="Ellipse 33" cx="196.395" cy="533.987" rx="3.02147" ry="2.98717" fill="#AA95E4"/>
<ellipse id="Ellipse 34" cx="196.395" cy="565.054" rx="3.02147" ry="2.98717" fill="#AA95E4"/>
<ellipse id="Ellipse 35" cx="196.395" cy="594.925" rx="3.02147" ry="2.98717" fill="#AA95E4"/>
<ellipse id="Ellipse 36" cx="196.395" cy="625.992" rx="3.02147" ry="2.98717" fill="#AA95E4"/>
<ellipse id="Ellipse 37" cx="196.395" cy="655.864" rx="3.02147" ry="2.98717" fill="#AA95E4"/>
<ellipse id="Ellipse 38" cx="196.395" cy="686.931" rx="3.02147" ry="2.98717" fill="#AA95E4"/>
<ellipse id="Ellipse 39" cx="196.395" cy="716.802" rx="3.02147" ry="2.98717" fill="#AA95E4"/>
<ellipse id="Ellipse 40" cx="196.395" cy="747.869" rx="3.02147" ry="2.98717" fill="#AA95E4"/>
<ellipse id="Ellipse 41" cx="220.567" cy="533.987" rx="3.02147" ry="2.98717" fill="#AA95E4"/>
<ellipse id="Ellipse 42" cx="220.567" cy="565.054" rx="3.02147" ry="2.98717" fill="#AA95E4"/>
<ellipse id="Ellipse 43" cx="220.567" cy="594.925" rx="3.02147" ry="2.98717" fill="#AA95E4"/>
<ellipse id="Ellipse 44" cx="220.567" cy="625.992" rx="3.02147" ry="2.98717" fill="#AA95E4"/>
<ellipse id="Ellipse 45" cx="220.567" cy="655.864" rx="3.02147" ry="2.98717" fill="#AA95E4"/>
<ellipse id="Ellipse 46" cx="220.567" cy="686.931" rx="3.02147" ry="2.98717" fill="#AA95E4"/>
<ellipse id="Ellipse 47" cx="220.567" cy="716.802" rx="3.02147" ry="2.98717" fill="#AA95E4"/>
<ellipse id="Ellipse 48" cx="220.567" cy="747.869" rx="3.02147" ry="2.98717" fill="#AA95E4"/>
<ellipse id="Ellipse 49" cx="75.5366" cy="533.987" rx="3.02147" ry="2.98717" fill="#AA95E4"/>
<ellipse id="Ellipse 50" cx="75.5365" cy="565.054" rx="3.02147" ry="2.98717" fill="#AA95E4"/>
<ellipse id="Ellipse 51" cx="75.5365" cy="594.925" rx="3.02147" ry="2.98717" fill="#AA95E4"/>
<ellipse id="Ellipse 52" cx="75.5365" cy="625.992" rx="3.02147" ry="2.98717" fill="#AA95E4"/>
<ellipse id="Ellipse 53" cx="75.5365" cy="655.864" rx="3.02147" ry="2.98717" fill="#AA95E4"/>
<ellipse id="Ellipse 54" cx="75.5365" cy="686.931" rx="3.02147" ry="2.98717" fill="#AA95E4"/>
<ellipse id="Ellipse 55" cx="75.5365" cy="716.802" rx="3.02147" ry="2.98717" fill="#AA95E4"/>
<ellipse id="Ellipse 56" cx="75.5365" cy="747.869" rx="3.02147" ry="2.98717" fill="#AA95E4"/>
<ellipse id="Ellipse 57" cx="51.365" cy="533.987" rx="3.02147" ry="2.98717" fill="#AA95E4"/>
<ellipse id="Ellipse 58" cx="51.365" cy="565.054" rx="3.02147" ry="2.98717" fill="#AA95E4"/>
<ellipse id="Ellipse 59" cx="51.365" cy="594.925" rx="3.02147" ry="2.98717" fill="#AA95E4"/>
<ellipse id="Ellipse 60" cx="51.365" cy="625.992" rx="3.02147" ry="2.98717" fill="#AA95E4"/>
<ellipse id="Ellipse 61" cx="51.365" cy="655.864" rx="3.02147" ry="2.98717" fill="#AA95E4"/>
<ellipse id="Ellipse 62" cx="51.365" cy="686.931" rx="3.02147" ry="2.98717" fill="#AA95E4"/>
<ellipse id="Ellipse 63" cx="51.365" cy="716.802" rx="3.02147" ry="2.98717" fill="#AA95E4"/>
<ellipse id="Ellipse 64" cx="51.365" cy="747.869" rx="3.02147" ry="2.98717" fill="#AA95E4"/>
<ellipse id="Ellipse 65" cx="27.1932" cy="533.987" rx="3.02147" ry="2.98717" fill="#AA95E4"/>
<ellipse id="Ellipse 66" cx="27.1931" cy="565.054" rx="3.02147" ry="2.98717" fill="#AA95E4"/>
<ellipse id="Ellipse 67" cx="27.1931" cy="594.925" rx="3.02147" ry="2.98717" fill="#AA95E4"/>
<ellipse id="Ellipse 68" cx="27.1931" cy="625.992" rx="3.02147" ry="2.98717" fill="#AA95E4"/>
<ellipse id="Ellipse 69" cx="27.1931" cy="655.864" rx="3.02147" ry="2.98717" fill="#AA95E4"/>
<ellipse id="Ellipse 70" cx="27.1931" cy="686.931" rx="3.02147" ry="2.98717" fill="#AA95E4"/>
<ellipse id="Ellipse 71" cx="27.1931" cy="716.802" rx="3.02147" ry="2.98717" fill="#AA95E4"/>
<ellipse id="Ellipse 72" cx="27.1931" cy="747.869" rx="3.02147" ry="2.98717" fill="#AA95E4"/>
<ellipse id="Ellipse 73" cx="3.02147" cy="533.987" rx="3.02147" ry="2.98717" fill="#AA95E4"/>
<ellipse id="Ellipse 74" cx="3.02147" cy="565.054" rx="3.02147" ry="2.98717" fill="#AA95E4"/>
<ellipse id="Ellipse 75" cx="3.02147" cy="594.925" rx="3.02147" ry="2.98717" fill="#AA95E4"/>
<ellipse id="Ellipse 76" cx="3.02147" cy="625.992" rx="3.02147" ry="2.98717" fill="#AA95E4"/>
<ellipse id="Ellipse 77" cx="3.02147" cy="655.864" rx="3.02147" ry="2.98717" fill="#AA95E4"/>
<ellipse id="Ellipse 78" cx="3.02147" cy="686.931" rx="3.02147" ry="2.98717" fill="#AA95E4"/>
<ellipse id="Ellipse 79" cx="3.02147" cy="716.802" rx="3.02147" ry="2.98717" fill="#AA95E4"/>
<ellipse id="Ellipse 80" cx="3.02147" cy="747.869" rx="3.02147" ry="2.98717" fill="#AA95E4"/>
</g>
<mask id="mask0" mask-type="alpha" maskUnits="userSpaceOnUse" x="785" y="41" width="1118" height="1118">
<rect id="Container" width="976.458" height="722.167" rx="100" transform="matrix(0.680493 0.732755 -0.741555 0.670892 1279.12 0)" fill="#714ADE"/>
</mask>
<g mask="url(#mask0)">
<rect id="Container_2" width="976.458" height="722.167" rx="100" transform="matrix(0.680493 0.732755 -0.741555 0.670892 1279.12 0)" fill="#714ADE"/>
<g id="DotGridBottom">
<ellipse id="Ellipse 1_2" cx="1170.71" cy="820.987" rx="3.02147" ry="2.98717" fill="white" fill-opacity="0.75"/>
<ellipse id="Ellipse 2_2" cx="1170.71" cy="852.054" rx="3.02147" ry="2.98717" fill="white" fill-opacity="0.75"/>
<ellipse id="Ellipse 3_2" cx="1170.71" cy="881.926" rx="3.02147" ry="2.98717" fill="white" fill-opacity="0.75"/>
<ellipse id="Ellipse 4_2" cx="1170.71" cy="912.992" rx="3.02147" ry="2.98717" fill="white" fill-opacity="0.75"/>
<ellipse id="Ellipse 5_2" cx="1170.71" cy="942.864" rx="3.02147" ry="2.98717" fill="white" fill-opacity="0.75"/>
<ellipse id="Ellipse 9_2" cx="1194.88" cy="820.987" rx="3.02147" ry="2.98717" fill="white" fill-opacity="0.75"/>
<ellipse id="Ellipse 10_2" cx="1194.88" cy="852.054" rx="3.02147" ry="2.98717" fill="white" fill-opacity="0.75"/>
<ellipse id="Ellipse 11_2" cx="1194.88" cy="881.926" rx="3.02147" ry="2.98717" fill="white" fill-opacity="0.75"/>
<ellipse id="Ellipse 12_2" cx="1194.88" cy="912.992" rx="3.02147" ry="2.98717" fill="white" fill-opacity="0.75"/>
<ellipse id="Ellipse 13_2" cx="1194.88" cy="942.864" rx="3.02147" ry="2.98717" fill="white" fill-opacity="0.75"/>
<ellipse id="Ellipse 17_2" cx="1219.05" cy="820.987" rx="3.02147" ry="2.98717" fill="white" fill-opacity="0.75"/>
<ellipse id="Ellipse 18_2" cx="1219.05" cy="852.054" rx="3.02147" ry="2.98717" fill="white" fill-opacity="0.75"/>
<ellipse id="Ellipse 19_2" cx="1219.05" cy="881.926" rx="3.02147" ry="2.98717" fill="white" fill-opacity="0.75"/>
<ellipse id="Ellipse 20_2" cx="1219.05" cy="912.992" rx="3.02147" ry="2.98717" fill="white" fill-opacity="0.75"/>
<ellipse id="Ellipse 21_2" cx="1219.05" cy="942.864" rx="3.02147" ry="2.98717" fill="white" fill-opacity="0.75"/>
<ellipse id="Ellipse 25_2" cx="1243.22" cy="820.987" rx="3.02147" ry="2.98717" fill="white" fill-opacity="0.75"/>
<ellipse id="Ellipse 26_2" cx="1243.22" cy="852.054" rx="3.02147" ry="2.98717" fill="white" fill-opacity="0.75"/>
<ellipse id="Ellipse 27_2" cx="1243.22" cy="881.926" rx="3.02147" ry="2.98717" fill="white" fill-opacity="0.75"/>
<ellipse id="Ellipse 28_2" cx="1243.22" cy="912.992" rx="3.02147" ry="2.98717" fill="white" fill-opacity="0.75"/>
<ellipse id="Ellipse 29_2" cx="1243.22" cy="942.864" rx="3.02147" ry="2.98717" fill="white" fill-opacity="0.75"/>
<ellipse id="Ellipse 33_2" cx="1267.39" cy="820.987" rx="3.02147" ry="2.98717" fill="white" fill-opacity="0.75"/>
<ellipse id="Ellipse 34_2" cx="1267.39" cy="852.054" rx="3.02147" ry="2.98717" fill="white" fill-opacity="0.75"/>
<ellipse id="Ellipse 35_2" cx="1267.39" cy="881.926" rx="3.02147" ry="2.98717" fill="white" fill-opacity="0.75"/>
<ellipse id="Ellipse 36_2" cx="1267.39" cy="912.992" rx="3.02147" ry="2.98717" fill="white" fill-opacity="0.75"/>
<ellipse id="Ellipse 37_2" cx="1267.39" cy="942.864" rx="3.02147" ry="2.98717" fill="white" fill-opacity="0.75"/>
<ellipse id="Ellipse 41_2" cx="1291.57" cy="820.987" rx="3.02147" ry="2.98717" fill="white" fill-opacity="0.75"/>
<ellipse id="Ellipse 42_2" cx="1291.57" cy="852.054" rx="3.02147" ry="2.98717" fill="white" fill-opacity="0.75"/>
<ellipse id="Ellipse 43_2" cx="1291.57" cy="881.926" rx="3.02147" ry="2.98717" fill="white" fill-opacity="0.75"/>
<ellipse id="Ellipse 44_2" cx="1291.57" cy="912.992" rx="3.02147" ry="2.98717" fill="white" fill-opacity="0.75"/>
<ellipse id="Ellipse 45_2" cx="1291.57" cy="942.864" rx="3.02147" ry="2.98717" fill="white" fill-opacity="0.75"/>
<ellipse id="Ellipse 49_2" cx="1146.54" cy="820.987" rx="3.02147" ry="2.98717" fill="white" fill-opacity="0.75"/>
<ellipse id="Ellipse 50_2" cx="1146.54" cy="852.054" rx="3.02147" ry="2.98717" fill="white" fill-opacity="0.75"/>
<ellipse id="Ellipse 51_2" cx="1146.54" cy="881.926" rx="3.02147" ry="2.98717" fill="white" fill-opacity="0.75"/>
<ellipse id="Ellipse 52_2" cx="1146.54" cy="912.992" rx="3.02147" ry="2.98717" fill="white" fill-opacity="0.75"/>
<ellipse id="Ellipse 53_2" cx="1146.54" cy="942.864" rx="3.02147" ry="2.98717" fill="white" fill-opacity="0.75"/>
<ellipse id="Ellipse 57_2" cx="1122.36" cy="820.987" rx="3.02147" ry="2.98717" fill="white" fill-opacity="0.75"/>
<ellipse id="Ellipse 58_2" cx="1122.36" cy="852.054" rx="3.02147" ry="2.98717" fill="white" fill-opacity="0.75"/>
<ellipse id="Ellipse 59_2" cx="1122.36" cy="881.926" rx="3.02147" ry="2.98717" fill="white" fill-opacity="0.75"/>
<ellipse id="Ellipse 60_2" cx="1122.36" cy="912.992" rx="3.02147" ry="2.98717" fill="white" fill-opacity="0.75"/>
<ellipse id="Ellipse 61_2" cx="1122.36" cy="942.864" rx="3.02147" ry="2.98717" fill="white" fill-opacity="0.75"/>
<ellipse id="Ellipse 65_2" cx="1098.19" cy="820.987" rx="3.02147" ry="2.98717" fill="white" fill-opacity="0.75"/>
<ellipse id="Ellipse 66_2" cx="1098.19" cy="852.054" rx="3.02147" ry="2.98717" fill="white" fill-opacity="0.75"/>
<ellipse id="Ellipse 67_2" cx="1098.19" cy="881.926" rx="3.02147" ry="2.98717" fill="white" fill-opacity="0.75"/>
<ellipse id="Ellipse 68_2" cx="1098.19" cy="912.992" rx="3.02147" ry="2.98717" fill="white" fill-opacity="0.75"/>
<ellipse id="Ellipse 69_2" cx="1098.19" cy="942.864" rx="3.02147" ry="2.98717" fill="white" fill-opacity="0.75"/>
<ellipse id="Ellipse 73_2" cx="1074.02" cy="820.987" rx="3.02147" ry="2.98717" fill="white" fill-opacity="0.75"/>
<ellipse id="Ellipse 74_2" cx="1074.02" cy="852.054" rx="3.02147" ry="2.98717" fill="white" fill-opacity="0.75"/>
<ellipse id="Ellipse 75_2" cx="1074.02" cy="881.926" rx="3.02147" ry="2.98717" fill="white" fill-opacity="0.75"/>
<ellipse id="Ellipse 76_2" cx="1074.02" cy="912.992" rx="3.02147" ry="2.98717" fill="white" fill-opacity="0.75"/>
<ellipse id="Ellipse 77_2" cx="1074.02" cy="942.864" rx="3.02147" ry="2.98717" fill="white" fill-opacity="0.75"/>
</g>
<g id="DotGridTop_2">
<ellipse id="Ellipse 1_3" cx="889.704" cy="254.987" rx="3.02147" ry="2.98717" fill="#AA95E4"/>
<ellipse id="Ellipse 2_3" cx="889.704" cy="286.054" rx="3.02147" ry="2.98717" fill="#AA95E4"/>
<ellipse id="Ellipse 3_3" cx="889.704" cy="315.925" rx="3.02147" ry="2.98717" fill="#AA95E4"/>
<ellipse id="Ellipse 4_3" cx="889.704" cy="346.992" rx="3.02147" ry="2.98717" fill="#AA95E4"/>
<ellipse id="Ellipse 5_3" cx="889.704" cy="376.864" rx="3.02147" ry="2.98717" fill="#AA95E4"/>
<ellipse id="Ellipse 6_2" cx="889.704" cy="407.931" rx="3.02147" ry="2.98717" fill="#AA95E4"/>
<ellipse id="Ellipse 7_2" cx="889.704" cy="437.802" rx="3.02147" ry="2.98717" fill="#AA95E4"/>
<ellipse id="Ellipse 8_2" cx="889.704" cy="468.869" rx="3.02147" ry="2.98717" fill="#AA95E4"/>
<ellipse id="Ellipse 9_3" cx="913.876" cy="254.987" rx="3.02147" ry="2.98717" fill="#AA95E4"/>
<ellipse id="Ellipse 10_3" cx="913.876" cy="286.054" rx="3.02147" ry="2.98717" fill="#AA95E4"/>
<ellipse id="Ellipse 11_3" cx="913.876" cy="315.925" rx="3.02147" ry="2.98717" fill="#AA95E4"/>
<ellipse id="Ellipse 12_3" cx="913.876" cy="346.992" rx="3.02147" ry="2.98717" fill="#AA95E4"/>
<ellipse id="Ellipse 13_3" cx="913.876" cy="376.864" rx="3.02147" ry="2.98717" fill="#AA95E4"/>
<ellipse id="Ellipse 14_2" cx="913.876" cy="407.931" rx="3.02147" ry="2.98717" fill="#AA95E4"/>
<ellipse id="Ellipse 15_2" cx="913.876" cy="437.802" rx="3.02147" ry="2.98717" fill="#AA95E4"/>
<ellipse id="Ellipse 16_2" cx="913.876" cy="468.869" rx="3.02147" ry="2.98717" fill="#AA95E4"/>
<ellipse id="Ellipse 17_3" cx="938.048" cy="254.987" rx="3.02147" ry="2.98717" fill="#AA95E4"/>
<ellipse id="Ellipse 18_3" cx="938.048" cy="286.054" rx="3.02147" ry="2.98717" fill="#AA95E4"/>
<ellipse id="Ellipse 19_3" cx="938.048" cy="315.925" rx="3.02147" ry="2.98717" fill="#AA95E4"/>
<ellipse id="Ellipse 20_3" cx="938.048" cy="346.992" rx="3.02147" ry="2.98717" fill="#AA95E4"/>
<ellipse id="Ellipse 21_3" cx="938.048" cy="376.864" rx="3.02147" ry="2.98717" fill="#AA95E4"/>
<ellipse id="Ellipse 22_2" cx="938.048" cy="407.931" rx="3.02147" ry="2.98717" fill="#AA95E4"/>
<ellipse id="Ellipse 23_2" cx="938.048" cy="437.802" rx="3.02147" ry="2.98717" fill="#AA95E4"/>
<ellipse id="Ellipse 24_2" cx="938.048" cy="468.869" rx="3.02147" ry="2.98717" fill="#AA95E4"/>
<ellipse id="Ellipse 25_3" cx="962.219" cy="254.987" rx="3.02147" ry="2.98717" fill="#AA95E4"/>
<ellipse id="Ellipse 26_3" cx="962.219" cy="286.054" rx="3.02147" ry="2.98717" fill="#AA95E4"/>
<ellipse id="Ellipse 27_3" cx="962.219" cy="315.925" rx="3.02147" ry="2.98717" fill="#AA95E4"/>
<ellipse id="Ellipse 28_3" cx="962.219" cy="346.992" rx="3.02147" ry="2.98717" fill="#AA95E4"/>
<ellipse id="Ellipse 29_3" cx="962.219" cy="376.864" rx="3.02147" ry="2.98717" fill="#AA95E4"/>
<ellipse id="Ellipse 30_2" cx="962.219" cy="407.931" rx="3.02147" ry="2.98717" fill="#AA95E4"/>
<ellipse id="Ellipse 31_2" cx="962.219" cy="437.802" rx="3.02147" ry="2.98717" fill="#AA95E4"/>
<ellipse id="Ellipse 32_2" cx="962.219" cy="468.869" rx="3.02147" ry="2.98717" fill="#AA95E4"/>
<ellipse id="Ellipse 33_3" cx="986.391" cy="254.987" rx="3.02147" ry="2.98717" fill="#AA95E4"/>
<ellipse id="Ellipse 34_3" cx="986.391" cy="286.054" rx="3.02147" ry="2.98717" fill="#AA95E4"/>
<ellipse id="Ellipse 35_3" cx="986.391" cy="315.925" rx="3.02147" ry="2.98717" fill="#AA95E4"/>
<ellipse id="Ellipse 36_3" cx="986.391" cy="346.992" rx="3.02147" ry="2.98717" fill="#AA95E4"/>
<ellipse id="Ellipse 37_3" cx="986.391" cy="376.864" rx="3.02147" ry="2.98717" fill="#AA95E4"/>
<ellipse id="Ellipse 38_2" cx="986.391" cy="407.931" rx="3.02147" ry="2.98717" fill="#AA95E4"/>
<ellipse id="Ellipse 39_2" cx="986.391" cy="437.802" rx="3.02147" ry="2.98717" fill="#AA95E4"/>
<ellipse id="Ellipse 40_2" cx="986.391" cy="468.869" rx="3.02147" ry="2.98717" fill="#AA95E4"/>
<ellipse id="Ellipse 41_3" cx="1010.56" cy="254.987" rx="3.02147" ry="2.98717" fill="#AA95E4"/>
<ellipse id="Ellipse 42_3" cx="1010.56" cy="286.054" rx="3.02147" ry="2.98717" fill="#AA95E4"/>
<ellipse id="Ellipse 43_3" cx="1010.56" cy="315.925" rx="3.02147" ry="2.98717" fill="#AA95E4"/>
<ellipse id="Ellipse 44_3" cx="1010.56" cy="346.992" rx="3.02147" ry="2.98717" fill="#AA95E4"/>
<ellipse id="Ellipse 45_3" cx="1010.56" cy="376.864" rx="3.02147" ry="2.98717" fill="#AA95E4"/>
<ellipse id="Ellipse 46_2" cx="1010.56" cy="407.931" rx="3.02147" ry="2.98717" fill="#AA95E4"/>
<ellipse id="Ellipse 47_2" cx="1010.56" cy="437.802" rx="3.02147" ry="2.98717" fill="#AA95E4"/>
<ellipse id="Ellipse 48_2" cx="1010.56" cy="468.869" rx="3.02147" ry="2.98717" fill="#AA95E4"/>
<ellipse id="Ellipse 49_3" cx="865.532" cy="254.987" rx="3.02147" ry="2.98717" fill="#AA95E4"/>
<ellipse id="Ellipse 50_3" cx="865.532" cy="286.054" rx="3.02147" ry="2.98717" fill="#AA95E4"/>
<ellipse id="Ellipse 51_3" cx="865.532" cy="315.925" rx="3.02147" ry="2.98717" fill="#AA95E4"/>
<ellipse id="Ellipse 52_3" cx="865.532" cy="346.992" rx="3.02147" ry="2.98717" fill="#AA95E4"/>
<ellipse id="Ellipse 53_3" cx="865.532" cy="376.864" rx="3.02147" ry="2.98717" fill="#AA95E4"/>
<ellipse id="Ellipse 54_2" cx="865.532" cy="407.931" rx="3.02147" ry="2.98717" fill="#AA95E4"/>
<ellipse id="Ellipse 55_2" cx="865.532" cy="437.802" rx="3.02147" ry="2.98717" fill="#AA95E4"/>
<ellipse id="Ellipse 56_2" cx="865.532" cy="468.869" rx="3.02147" ry="2.98717" fill="#AA95E4"/>
<ellipse id="Ellipse 57_3" cx="841.361" cy="254.987" rx="3.02147" ry="2.98717" fill="#AA95E4"/>
<ellipse id="Ellipse 58_3" cx="841.361" cy="286.054" rx="3.02147" ry="2.98717" fill="#AA95E4"/>
<ellipse id="Ellipse 59_3" cx="841.361" cy="315.925" rx="3.02147" ry="2.98717" fill="#AA95E4"/>
<ellipse id="Ellipse 60_3" cx="841.361" cy="346.992" rx="3.02147" ry="2.98717" fill="#AA95E4"/>
<ellipse id="Ellipse 61_3" cx="841.361" cy="376.864" rx="3.02147" ry="2.98717" fill="#AA95E4"/>
<ellipse id="Ellipse 62_2" cx="841.361" cy="407.931" rx="3.02147" ry="2.98717" fill="#AA95E4"/>
<ellipse id="Ellipse 63_2" cx="841.361" cy="437.802" rx="3.02147" ry="2.98717" fill="#AA95E4"/>
<ellipse id="Ellipse 64_2" cx="841.361" cy="468.869" rx="3.02147" ry="2.98717" fill="#AA95E4"/>
<ellipse id="Ellipse 65_3" cx="817.189" cy="254.987" rx="3.02147" ry="2.98717" fill="#AA95E4"/>
<ellipse id="Ellipse 66_3" cx="817.189" cy="286.054" rx="3.02147" ry="2.98717" fill="#AA95E4"/>
<ellipse id="Ellipse 67_3" cx="817.189" cy="315.925" rx="3.02147" ry="2.98717" fill="#AA95E4"/>
<ellipse id="Ellipse 68_3" cx="817.189" cy="346.992" rx="3.02147" ry="2.98717" fill="#AA95E4"/>
<ellipse id="Ellipse 69_3" cx="817.189" cy="376.864" rx="3.02147" ry="2.98717" fill="#AA95E4"/>
<ellipse id="Ellipse 70_2" cx="817.189" cy="407.931" rx="3.02147" ry="2.98717" fill="#AA95E4"/>
<ellipse id="Ellipse 71_2" cx="817.189" cy="437.802" rx="3.02147" ry="2.98717" fill="#AA95E4"/>
<ellipse id="Ellipse 72_2" cx="817.189" cy="468.869" rx="3.02147" ry="2.98717" fill="#AA95E4"/>
<ellipse id="Ellipse 73_3" cx="793.017" cy="254.987" rx="3.02147" ry="2.98717" fill="#AA95E4"/>
<ellipse id="Ellipse 74_3" cx="793.017" cy="286.054" rx="3.02147" ry="2.98717" fill="#AA95E4"/>
<ellipse id="Ellipse 75_3" cx="793.017" cy="315.925" rx="3.02147" ry="2.98717" fill="#AA95E4"/>
<ellipse id="Ellipse 76_3" cx="793.017" cy="346.992" rx="3.02147" ry="2.98717" fill="#AA95E4"/>
<ellipse id="Ellipse 77_3" cx="793.017" cy="376.864" rx="3.02147" ry="2.98717" fill="#AA95E4"/>
<ellipse id="Ellipse 78_2" cx="793.017" cy="407.931" rx="3.02147" ry="2.98717" fill="#AA95E4"/>
<ellipse id="Ellipse 79_2" cx="793.017" cy="437.802" rx="3.02147" ry="2.98717" fill="#AA95E4"/>
<ellipse id="Ellipse 80_2" cx="793.017" cy="468.869" rx="3.02147" ry="2.98717" fill="#AA95E4"/>
</g>
<g id="Group 1">
<rect id="Rectangle 3" width="17.4689" height="17.4689" rx="5" transform="matrix(0.713033 -0.70113 0.713033 0.70113 1100.88 418.409)" fill="#BDAAF5" fill-opacity="0.5"/>
<rect id="Rectangle 2" width="23.2919" height="23.2919" rx="5" transform="matrix(0.713033 -0.70113 0.713033 0.70113 1215.37 347.568)" fill="#BDAAF5" fill-opacity="0.5"/>
<rect id="Rectangle 1" width="58.2296" height="58.2296" rx="5" transform="matrix(-0.713033 -0.70113 0.713033 -0.70113 1152.45 293.653)" fill="#BDAAF5" fill-opacity="0.25"/>
</g>
</g>
</g>
</svg>
