<svg width="541" height="768" viewBox="0 0 541 768" fill="none" xmlns="http://www.w3.org/2000/svg">
<g id="HeaderSVG">
<mask id="mask0" mask-type="alpha" maskUnits="userSpaceOnUse" x="41" y="-264" width="1118" height="1118">
<rect id="Container" width="976.458" height="722.167" rx="100" transform="matrix(0.680493 0.732755 -0.741555 0.670892 535.527 -305)" fill="#714ADE"/>
</mask>
<g mask="url(#mask0)">
<rect id="Container_2" width="976.458" height="722.167" rx="100" transform="matrix(0.680493 0.732755 -0.741555 0.670892 535.527 -305)" fill="#714ADE"/>
<g id="DotGridBottom">
<ellipse id="Ellipse 1" cx="408.146" cy="523.913" rx="3.02147" ry="2.98717" fill="white" fill-opacity="0.75"/>
<ellipse id="Ellipse 2" cx="408.146" cy="554.979" rx="3.02147" ry="2.98717" fill="white" fill-opacity="0.75"/>
<ellipse id="Ellipse 3" cx="408.146" cy="584.851" rx="3.02147" ry="2.98717" fill="white" fill-opacity="0.75"/>
<ellipse id="Ellipse 4" cx="408.146" cy="615.918" rx="3.02147" ry="2.98717" fill="white" fill-opacity="0.75"/>
<ellipse id="Ellipse 5" cx="408.146" cy="645.79" rx="3.02147" ry="2.98717" fill="white" fill-opacity="0.75"/>
<ellipse id="Ellipse 6" cx="408.146" cy="676.856" rx="3.02147" ry="2.98717" fill="white" fill-opacity="0.75"/>
<ellipse id="Ellipse 7" cx="408.146" cy="706.728" rx="3.02147" ry="2.98717" fill="white" fill-opacity="0.75"/>
<ellipse id="Ellipse 8" cx="408.146" cy="737.795" rx="3.02147" ry="2.98717" fill="white" fill-opacity="0.75"/>
<ellipse id="Ellipse 9" cx="432.317" cy="523.913" rx="3.02147" ry="2.98717" fill="white" fill-opacity="0.75"/>
<ellipse id="Ellipse 10" cx="432.317" cy="554.979" rx="3.02147" ry="2.98717" fill="white" fill-opacity="0.75"/>
<ellipse id="Ellipse 11" cx="432.317" cy="584.851" rx="3.02147" ry="2.98717" fill="white" fill-opacity="0.75"/>
<ellipse id="Ellipse 12" cx="432.317" cy="615.918" rx="3.02147" ry="2.98717" fill="white" fill-opacity="0.75"/>
<ellipse id="Ellipse 13" cx="432.317" cy="645.79" rx="3.02147" ry="2.98717" fill="white" fill-opacity="0.75"/>
<ellipse id="Ellipse 14" cx="432.317" cy="676.856" rx="3.02147" ry="2.98717" fill="white" fill-opacity="0.75"/>
<ellipse id="Ellipse 15" cx="432.317" cy="706.728" rx="3.02147" ry="2.98717" fill="white" fill-opacity="0.75"/>
<ellipse id="Ellipse 16" cx="432.317" cy="737.795" rx="3.02147" ry="2.98717" fill="white" fill-opacity="0.75"/>
<ellipse id="Ellipse 17" cx="456.489" cy="523.913" rx="3.02147" ry="2.98717" fill="white" fill-opacity="0.75"/>
<ellipse id="Ellipse 18" cx="456.489" cy="554.979" rx="3.02147" ry="2.98717" fill="white" fill-opacity="0.75"/>
<ellipse id="Ellipse 19" cx="456.489" cy="584.851" rx="3.02147" ry="2.98717" fill="white" fill-opacity="0.75"/>
<ellipse id="Ellipse 20" cx="456.489" cy="615.918" rx="3.02147" ry="2.98717" fill="white" fill-opacity="0.75"/>
<ellipse id="Ellipse 21" cx="456.489" cy="645.79" rx="3.02147" ry="2.98717" fill="white" fill-opacity="0.75"/>
<ellipse id="Ellipse 22" cx="456.489" cy="676.856" rx="3.02147" ry="2.98717" fill="white" fill-opacity="0.75"/>
<ellipse id="Ellipse 23" cx="456.489" cy="706.728" rx="3.02147" ry="2.98717" fill="white" fill-opacity="0.75"/>
<ellipse id="Ellipse 24" cx="456.489" cy="737.795" rx="3.02147" ry="2.98717" fill="white" fill-opacity="0.75"/>
<ellipse id="Ellipse 25" cx="480.661" cy="523.913" rx="3.02147" ry="2.98717" fill="white" fill-opacity="0.75"/>
<ellipse id="Ellipse 26" cx="480.661" cy="554.979" rx="3.02147" ry="2.98717" fill="white" fill-opacity="0.75"/>
<ellipse id="Ellipse 27" cx="480.661" cy="584.851" rx="3.02147" ry="2.98717" fill="white" fill-opacity="0.75"/>
<ellipse id="Ellipse 28" cx="480.661" cy="615.918" rx="3.02147" ry="2.98717" fill="white" fill-opacity="0.75"/>
<ellipse id="Ellipse 29" cx="480.661" cy="645.79" rx="3.02147" ry="2.98717" fill="white" fill-opacity="0.75"/>
<ellipse id="Ellipse 30" cx="480.661" cy="676.856" rx="3.02147" ry="2.98717" fill="white" fill-opacity="0.75"/>
<ellipse id="Ellipse 31" cx="480.661" cy="706.728" rx="3.02147" ry="2.98717" fill="white" fill-opacity="0.75"/>
<ellipse id="Ellipse 32" cx="480.661" cy="737.795" rx="3.02147" ry="2.98717" fill="white" fill-opacity="0.75"/>
<ellipse id="Ellipse 33" cx="504.832" cy="523.913" rx="3.02147" ry="2.98717" fill="white" fill-opacity="0.75"/>
<ellipse id="Ellipse 34" cx="504.833" cy="554.979" rx="3.02147" ry="2.98717" fill="white" fill-opacity="0.75"/>
<ellipse id="Ellipse 35" cx="504.833" cy="584.851" rx="3.02147" ry="2.98717" fill="white" fill-opacity="0.75"/>
<ellipse id="Ellipse 36" cx="504.833" cy="615.918" rx="3.02147" ry="2.98717" fill="white" fill-opacity="0.75"/>
<ellipse id="Ellipse 37" cx="504.833" cy="645.79" rx="3.02147" ry="2.98717" fill="white" fill-opacity="0.75"/>
<ellipse id="Ellipse 38" cx="504.833" cy="676.856" rx="3.02147" ry="2.98717" fill="white" fill-opacity="0.75"/>
<ellipse id="Ellipse 39" cx="504.833" cy="706.728" rx="3.02147" ry="2.98717" fill="white" fill-opacity="0.75"/>
<ellipse id="Ellipse 40" cx="504.833" cy="737.795" rx="3.02147" ry="2.98717" fill="white" fill-opacity="0.75"/>
<ellipse id="Ellipse 41" cx="529.005" cy="523.913" rx="3.02147" ry="2.98717" fill="white" fill-opacity="0.75"/>
<ellipse id="Ellipse 42" cx="529.005" cy="554.979" rx="3.02147" ry="2.98717" fill="white" fill-opacity="0.75"/>
<ellipse id="Ellipse 43" cx="529.005" cy="584.851" rx="3.02147" ry="2.98717" fill="white" fill-opacity="0.75"/>
<ellipse id="Ellipse 44" cx="529.005" cy="615.918" rx="3.02147" ry="2.98717" fill="white" fill-opacity="0.75"/>
<ellipse id="Ellipse 45" cx="529.005" cy="645.79" rx="3.02147" ry="2.98717" fill="white" fill-opacity="0.75"/>
<ellipse id="Ellipse 46" cx="529.005" cy="676.856" rx="3.02147" ry="2.98717" fill="white" fill-opacity="0.75"/>
<ellipse id="Ellipse 47" cx="529.005" cy="706.728" rx="3.02147" ry="2.98717" fill="white" fill-opacity="0.75"/>
<ellipse id="Ellipse 48" cx="529.005" cy="737.795" rx="3.02147" ry="2.98717" fill="white" fill-opacity="0.75"/>
<ellipse id="Ellipse 49" cx="383.974" cy="523.913" rx="3.02147" ry="2.98717" fill="white" fill-opacity="0.75"/>
<ellipse id="Ellipse 50" cx="383.974" cy="554.979" rx="3.02147" ry="2.98717" fill="white" fill-opacity="0.75"/>
<ellipse id="Ellipse 51" cx="383.974" cy="584.851" rx="3.02147" ry="2.98717" fill="white" fill-opacity="0.75"/>
<ellipse id="Ellipse 52" cx="383.974" cy="615.918" rx="3.02147" ry="2.98717" fill="white" fill-opacity="0.75"/>
<ellipse id="Ellipse 53" cx="383.974" cy="645.79" rx="3.02147" ry="2.98717" fill="white" fill-opacity="0.75"/>
<ellipse id="Ellipse 54" cx="383.974" cy="676.856" rx="3.02147" ry="2.98717" fill="white" fill-opacity="0.75"/>
<ellipse id="Ellipse 55" cx="383.974" cy="706.728" rx="3.02147" ry="2.98717" fill="white" fill-opacity="0.75"/>
<ellipse id="Ellipse 56" cx="383.974" cy="737.795" rx="3.02147" ry="2.98717" fill="white" fill-opacity="0.75"/>
<ellipse id="Ellipse 57" cx="359.802" cy="523.913" rx="3.02147" ry="2.98717" fill="white" fill-opacity="0.75"/>
<ellipse id="Ellipse 58" cx="359.802" cy="554.979" rx="3.02147" ry="2.98717" fill="white" fill-opacity="0.75"/>
<ellipse id="Ellipse 59" cx="359.802" cy="584.851" rx="3.02147" ry="2.98717" fill="white" fill-opacity="0.75"/>
<ellipse id="Ellipse 60" cx="359.802" cy="615.918" rx="3.02147" ry="2.98717" fill="white" fill-opacity="0.75"/>
<ellipse id="Ellipse 61" cx="359.802" cy="645.79" rx="3.02147" ry="2.98717" fill="white" fill-opacity="0.75"/>
<ellipse id="Ellipse 62" cx="359.802" cy="676.856" rx="3.02147" ry="2.98717" fill="white" fill-opacity="0.75"/>
<ellipse id="Ellipse 63" cx="359.802" cy="706.728" rx="3.02147" ry="2.98717" fill="white" fill-opacity="0.75"/>
<ellipse id="Ellipse 64" cx="359.802" cy="737.795" rx="3.02147" ry="2.98717" fill="white" fill-opacity="0.75"/>
<ellipse id="Ellipse 65" cx="335.63" cy="523.913" rx="3.02147" ry="2.98717" fill="white" fill-opacity="0.75"/>
<ellipse id="Ellipse 66" cx="335.63" cy="554.979" rx="3.02147" ry="2.98717" fill="white" fill-opacity="0.75"/>
<ellipse id="Ellipse 67" cx="335.63" cy="584.851" rx="3.02147" ry="2.98717" fill="white" fill-opacity="0.75"/>
<ellipse id="Ellipse 68" cx="335.63" cy="615.918" rx="3.02147" ry="2.98717" fill="white" fill-opacity="0.75"/>
<ellipse id="Ellipse 69" cx="335.63" cy="645.79" rx="3.02147" ry="2.98717" fill="white" fill-opacity="0.75"/>
<ellipse id="Ellipse 70" cx="335.63" cy="676.856" rx="3.02147" ry="2.98717" fill="white" fill-opacity="0.75"/>
<ellipse id="Ellipse 71" cx="335.63" cy="706.728" rx="3.02147" ry="2.98717" fill="white" fill-opacity="0.75"/>
<ellipse id="Ellipse 72" cx="335.63" cy="737.795" rx="3.02147" ry="2.98717" fill="white" fill-opacity="0.75"/>
<ellipse id="Ellipse 73" cx="311.459" cy="523.913" rx="3.02147" ry="2.98717" fill="white" fill-opacity="0.75"/>
<ellipse id="Ellipse 74" cx="311.459" cy="554.979" rx="3.02147" ry="2.98717" fill="white" fill-opacity="0.75"/>
<ellipse id="Ellipse 75" cx="311.459" cy="584.851" rx="3.02147" ry="2.98717" fill="white" fill-opacity="0.75"/>
<ellipse id="Ellipse 76" cx="311.459" cy="615.918" rx="3.02147" ry="2.98717" fill="white" fill-opacity="0.75"/>
<ellipse id="Ellipse 77" cx="311.459" cy="645.79" rx="3.02147" ry="2.98717" fill="white" fill-opacity="0.75"/>
<ellipse id="Ellipse 78" cx="311.459" cy="676.856" rx="3.02147" ry="2.98717" fill="white" fill-opacity="0.75"/>
<ellipse id="Ellipse 79" cx="311.459" cy="706.728" rx="3.02147" ry="2.98717" fill="white" fill-opacity="0.75"/>
<ellipse id="Ellipse 80" cx="311.459" cy="737.795" rx="3.02147" ry="2.98717" fill="white" fill-opacity="0.75"/>
</g>
<g id="DotGridTop">
<ellipse id="Ellipse 2_2" cx="108.451" cy="15.2596" rx="3.02147" ry="2.98717" fill="#AA95E4"/>
<ellipse id="Ellipse 3_2" cx="108.451" cy="45.1313" rx="3.02147" ry="2.98717" fill="#AA95E4"/>
<ellipse id="Ellipse 4_2" cx="108.451" cy="76.198" rx="3.02147" ry="2.98717" fill="#AA95E4"/>
<ellipse id="Ellipse 5_2" cx="108.451" cy="106.07" rx="3.02147" ry="2.98717" fill="#AA95E4"/>
<ellipse id="Ellipse 6_2" cx="108.451" cy="137.136" rx="3.02147" ry="2.98717" fill="#AA95E4"/>
<ellipse id="Ellipse 7_2" cx="108.451" cy="167.008" rx="3.02147" ry="2.98717" fill="#AA95E4"/>
<ellipse id="Ellipse 8_2" cx="108.451" cy="198.075" rx="3.02147" ry="2.98717" fill="#AA95E4"/>
<ellipse id="Ellipse 10_2" cx="132.623" cy="15.2596" rx="3.02147" ry="2.98717" fill="#AA95E4"/>
<ellipse id="Ellipse 11_2" cx="132.623" cy="45.1313" rx="3.02147" ry="2.98717" fill="#AA95E4"/>
<ellipse id="Ellipse 12_2" cx="132.623" cy="76.198" rx="3.02147" ry="2.98717" fill="#AA95E4"/>
<ellipse id="Ellipse 13_2" cx="132.623" cy="106.07" rx="3.02147" ry="2.98717" fill="#AA95E4"/>
<ellipse id="Ellipse 14_2" cx="132.623" cy="137.136" rx="3.02147" ry="2.98717" fill="#AA95E4"/>
<ellipse id="Ellipse 15_2" cx="132.623" cy="167.008" rx="3.02147" ry="2.98717" fill="#AA95E4"/>
<ellipse id="Ellipse 16_2" cx="132.623" cy="198.075" rx="3.02147" ry="2.98717" fill="#AA95E4"/>
<ellipse id="Ellipse 18_2" cx="156.795" cy="15.2596" rx="3.02147" ry="2.98717" fill="#AA95E4"/>
<ellipse id="Ellipse 19_2" cx="156.795" cy="45.1313" rx="3.02147" ry="2.98717" fill="#AA95E4"/>
<ellipse id="Ellipse 20_2" cx="156.795" cy="76.198" rx="3.02147" ry="2.98717" fill="#AA95E4"/>
<ellipse id="Ellipse 21_2" cx="156.795" cy="106.07" rx="3.02147" ry="2.98717" fill="#AA95E4"/>
<ellipse id="Ellipse 22_2" cx="156.795" cy="137.136" rx="3.02147" ry="2.98717" fill="#AA95E4"/>
<ellipse id="Ellipse 23_2" cx="156.795" cy="167.008" rx="3.02147" ry="2.98717" fill="#AA95E4"/>
<ellipse id="Ellipse 24_2" cx="156.795" cy="198.075" rx="3.02147" ry="2.98717" fill="#AA95E4"/>
<ellipse id="Ellipse 26_2" cx="180.966" cy="15.2596" rx="3.02147" ry="2.98717" fill="#AA95E4"/>
<ellipse id="Ellipse 27_2" cx="180.966" cy="45.1313" rx="3.02147" ry="2.98717" fill="#AA95E4"/>
<ellipse id="Ellipse 28_2" cx="180.966" cy="76.198" rx="3.02147" ry="2.98717" fill="#AA95E4"/>
<ellipse id="Ellipse 29_2" cx="180.966" cy="106.07" rx="3.02147" ry="2.98717" fill="#AA95E4"/>
<ellipse id="Ellipse 30_2" cx="180.966" cy="137.136" rx="3.02147" ry="2.98717" fill="#AA95E4"/>
<ellipse id="Ellipse 31_2" cx="180.966" cy="167.008" rx="3.02147" ry="2.98717" fill="#AA95E4"/>
<ellipse id="Ellipse 32_2" cx="180.966" cy="198.075" rx="3.02147" ry="2.98717" fill="#AA95E4"/>
<ellipse id="Ellipse 34_2" cx="205.138" cy="15.2596" rx="3.02147" ry="2.98717" fill="#AA95E4"/>
<ellipse id="Ellipse 35_2" cx="205.138" cy="45.1313" rx="3.02147" ry="2.98717" fill="#AA95E4"/>
<ellipse id="Ellipse 36_2" cx="205.138" cy="76.198" rx="3.02147" ry="2.98717" fill="#AA95E4"/>
<ellipse id="Ellipse 37_2" cx="205.138" cy="106.07" rx="3.02147" ry="2.98717" fill="#AA95E4"/>
<ellipse id="Ellipse 38_2" cx="205.138" cy="137.136" rx="3.02147" ry="2.98717" fill="#AA95E4"/>
<ellipse id="Ellipse 39_2" cx="205.138" cy="167.008" rx="3.02147" ry="2.98717" fill="#AA95E4"/>
<ellipse id="Ellipse 40_2" cx="205.138" cy="198.075" rx="3.02147" ry="2.98717" fill="#AA95E4"/>
<ellipse id="Ellipse 42_2" cx="229.31" cy="15.2596" rx="3.02147" ry="2.98717" fill="#AA95E4"/>
<ellipse id="Ellipse 43_2" cx="229.31" cy="45.1313" rx="3.02147" ry="2.98717" fill="#AA95E4"/>
<ellipse id="Ellipse 44_2" cx="229.31" cy="76.198" rx="3.02147" ry="2.98717" fill="#AA95E4"/>
<ellipse id="Ellipse 45_2" cx="229.31" cy="106.07" rx="3.02147" ry="2.98717" fill="#AA95E4"/>
<ellipse id="Ellipse 46_2" cx="229.31" cy="137.136" rx="3.02147" ry="2.98717" fill="#AA95E4"/>
<ellipse id="Ellipse 47_2" cx="229.31" cy="167.008" rx="3.02147" ry="2.98717" fill="#AA95E4"/>
<ellipse id="Ellipse 48_2" cx="229.31" cy="198.075" rx="3.02147" ry="2.98717" fill="#AA95E4"/>
<ellipse id="Ellipse 50_2" cx="84.2795" cy="15.2596" rx="3.02147" ry="2.98717" fill="#AA95E4"/>
<ellipse id="Ellipse 51_2" cx="84.2795" cy="45.1313" rx="3.02147" ry="2.98717" fill="#AA95E4"/>
<ellipse id="Ellipse 52_2" cx="84.2795" cy="76.198" rx="3.02147" ry="2.98717" fill="#AA95E4"/>
<ellipse id="Ellipse 53_2" cx="84.2795" cy="106.07" rx="3.02147" ry="2.98717" fill="#AA95E4"/>
<ellipse id="Ellipse 54_2" cx="84.2795" cy="137.136" rx="3.02147" ry="2.98717" fill="#AA95E4"/>
<ellipse id="Ellipse 55_2" cx="84.2795" cy="167.008" rx="3.02147" ry="2.98717" fill="#AA95E4"/>
<ellipse id="Ellipse 56_2" cx="84.2795" cy="198.075" rx="3.02147" ry="2.98717" fill="#AA95E4"/>
<ellipse id="Ellipse 58_2" cx="60.1079" cy="15.2596" rx="3.02147" ry="2.98717" fill="#AA95E4"/>
<ellipse id="Ellipse 59_2" cx="60.1079" cy="45.1313" rx="3.02147" ry="2.98717" fill="#AA95E4"/>
<ellipse id="Ellipse 60_2" cx="60.1079" cy="76.198" rx="3.02147" ry="2.98717" fill="#AA95E4"/>
<ellipse id="Ellipse 61_2" cx="60.1079" cy="106.07" rx="3.02147" ry="2.98717" fill="#AA95E4"/>
<ellipse id="Ellipse 62_2" cx="60.1079" cy="137.136" rx="3.02147" ry="2.98717" fill="#AA95E4"/>
<ellipse id="Ellipse 63_2" cx="60.1079" cy="167.008" rx="3.02147" ry="2.98717" fill="#AA95E4"/>
<ellipse id="Ellipse 64_2" cx="60.1079" cy="198.075" rx="3.02147" ry="2.98717" fill="#AA95E4"/>
</g>
<g id="Group 1">
<rect id="Rectangle 3" width="17.4689" height="17.4689" rx="5" transform="matrix(0.713033 -0.70113 0.713033 0.70113 365.715 446.654)" fill="#BDAAF5" fill-opacity="0.5"/>
<rect id="Rectangle 2" width="23.2919" height="23.2919" rx="5" transform="matrix(0.713033 -0.70113 0.713033 0.70113 480.21 375.814)" fill="#BDAAF5" fill-opacity="0.5"/>
<rect id="Rectangle 1" width="58.2296" height="58.2296" rx="5" transform="matrix(-0.713033 -0.70113 0.713033 -0.70113 417.29 321.898)" fill="#BDAAF5" fill-opacity="0.25"/>
</g>
</g>
</g>
</svg>
