<svg width="1281" height="1064" viewBox="0 0 1281 1064" fill="none" xmlns="http://www.w3.org/2000/svg">
<g id="HeaderSVG">
<g id="DotGridTop">
<ellipse id="Ellipse 1" rx="3.02147" ry="2.98717" transform="matrix(-1 0 0 1 1180.88 533.987)" fill="#AA95E4"/>
<ellipse id="Ellipse 2" rx="3.02147" ry="2.98717" transform="matrix(-1 0 0 1 1180.88 565.054)" fill="#AA95E4"/>
<ellipse id="Ellipse 3" rx="3.02147" ry="2.98717" transform="matrix(-1 0 0 1 1180.88 594.926)" fill="#AA95E4"/>
<ellipse id="Ellipse 4" rx="3.02147" ry="2.98717" transform="matrix(-1 0 0 1 1180.88 625.992)" fill="#AA95E4"/>
<ellipse id="Ellipse 5" rx="3.02147" ry="2.98717" transform="matrix(-1 0 0 1 1180.88 655.864)" fill="#AA95E4"/>
<ellipse id="Ellipse 6" rx="3.02147" ry="2.98717" transform="matrix(-1 0 0 1 1180.88 686.931)" fill="#AA95E4"/>
<ellipse id="Ellipse 7" rx="3.02147" ry="2.98717" transform="matrix(-1 0 0 1 1180.88 716.802)" fill="#AA95E4"/>
<ellipse id="Ellipse 8" rx="3.02147" ry="2.98717" transform="matrix(-1 0 0 1 1180.88 747.869)" fill="#AA95E4"/>
<ellipse id="Ellipse 9" rx="3.02147" ry="2.98717" transform="matrix(-1 0 0 1 1156.71 533.987)" fill="#AA95E4"/>
<ellipse id="Ellipse 10" rx="3.02147" ry="2.98717" transform="matrix(-1 0 0 1 1156.71 565.054)" fill="#AA95E4"/>
<ellipse id="Ellipse 11" rx="3.02147" ry="2.98717" transform="matrix(-1 0 0 1 1156.71 594.926)" fill="#AA95E4"/>
<ellipse id="Ellipse 12" rx="3.02147" ry="2.98717" transform="matrix(-1 0 0 1 1156.71 625.992)" fill="#AA95E4"/>
<ellipse id="Ellipse 13" rx="3.02147" ry="2.98717" transform="matrix(-1 0 0 1 1156.71 655.864)" fill="#AA95E4"/>
<ellipse id="Ellipse 14" rx="3.02147" ry="2.98717" transform="matrix(-1 0 0 1 1156.71 686.931)" fill="#AA95E4"/>
<ellipse id="Ellipse 15" rx="3.02147" ry="2.98717" transform="matrix(-1 0 0 1 1156.71 716.802)" fill="#AA95E4"/>
<ellipse id="Ellipse 16" rx="3.02147" ry="2.98717" transform="matrix(-1 0 0 1 1156.71 747.869)" fill="#AA95E4"/>
<ellipse id="Ellipse 17" rx="3.02147" ry="2.98717" transform="matrix(-1 0 0 1 1132.54 533.987)" fill="#AA95E4"/>
<ellipse id="Ellipse 18" rx="3.02147" ry="2.98717" transform="matrix(-1 0 0 1 1132.54 565.054)" fill="#AA95E4"/>
<ellipse id="Ellipse 19" rx="3.02147" ry="2.98717" transform="matrix(-1 0 0 1 1132.54 594.926)" fill="#AA95E4"/>
<ellipse id="Ellipse 20" rx="3.02147" ry="2.98717" transform="matrix(-1 0 0 1 1132.54 625.992)" fill="#AA95E4"/>
<ellipse id="Ellipse 21" rx="3.02147" ry="2.98717" transform="matrix(-1 0 0 1 1132.54 655.864)" fill="#AA95E4"/>
<ellipse id="Ellipse 22" rx="3.02147" ry="2.98717" transform="matrix(-1 0 0 1 1132.54 686.931)" fill="#AA95E4"/>
<ellipse id="Ellipse 23" rx="3.02147" ry="2.98717" transform="matrix(-1 0 0 1 1132.54 716.802)" fill="#AA95E4"/>
<ellipse id="Ellipse 24" rx="3.02147" ry="2.98717" transform="matrix(-1 0 0 1 1132.54 747.869)" fill="#AA95E4"/>
<ellipse id="Ellipse 25" rx="3.02147" ry="2.98717" transform="matrix(-1 0 0 1 1108.37 533.987)" fill="#AA95E4"/>
<ellipse id="Ellipse 26" rx="3.02147" ry="2.98717" transform="matrix(-1 0 0 1 1108.37 565.054)" fill="#AA95E4"/>
<ellipse id="Ellipse 27" rx="3.02147" ry="2.98717" transform="matrix(-1 0 0 1 1108.37 594.926)" fill="#AA95E4"/>
<ellipse id="Ellipse 28" rx="3.02147" ry="2.98717" transform="matrix(-1 0 0 1 1108.37 625.992)" fill="#AA95E4"/>
<ellipse id="Ellipse 29" rx="3.02147" ry="2.98717" transform="matrix(-1 0 0 1 1108.37 655.864)" fill="#AA95E4"/>
<ellipse id="Ellipse 30" rx="3.02147" ry="2.98717" transform="matrix(-1 0 0 1 1108.37 686.931)" fill="#AA95E4"/>
<ellipse id="Ellipse 31" rx="3.02147" ry="2.98717" transform="matrix(-1 0 0 1 1108.37 716.802)" fill="#AA95E4"/>
<ellipse id="Ellipse 32" rx="3.02147" ry="2.98717" transform="matrix(-1 0 0 1 1108.37 747.869)" fill="#AA95E4"/>
<ellipse id="Ellipse 33" rx="3.02147" ry="2.98717" transform="matrix(-1 0 0 1 1084.19 533.987)" fill="#AA95E4"/>
<ellipse id="Ellipse 34" rx="3.02147" ry="2.98717" transform="matrix(-1 0 0 1 1084.19 565.054)" fill="#AA95E4"/>
<ellipse id="Ellipse 35" rx="3.02147" ry="2.98717" transform="matrix(-1 0 0 1 1084.19 594.926)" fill="#AA95E4"/>
<ellipse id="Ellipse 36" rx="3.02147" ry="2.98717" transform="matrix(-1 0 0 1 1084.19 625.992)" fill="#AA95E4"/>
<ellipse id="Ellipse 37" rx="3.02147" ry="2.98717" transform="matrix(-1 0 0 1 1084.19 655.864)" fill="#AA95E4"/>
<ellipse id="Ellipse 38" rx="3.02147" ry="2.98717" transform="matrix(-1 0 0 1 1084.19 686.931)" fill="#AA95E4"/>
<ellipse id="Ellipse 39" rx="3.02147" ry="2.98717" transform="matrix(-1 0 0 1 1084.19 716.802)" fill="#AA95E4"/>
<ellipse id="Ellipse 40" rx="3.02147" ry="2.98717" transform="matrix(-1 0 0 1 1084.19 747.869)" fill="#AA95E4"/>
<ellipse id="Ellipse 41" rx="3.02147" ry="2.98717" transform="matrix(-1 0 0 1 1060.02 533.987)" fill="#AA95E4"/>
<ellipse id="Ellipse 42" rx="3.02147" ry="2.98717" transform="matrix(-1 0 0 1 1060.02 565.054)" fill="#AA95E4"/>
<ellipse id="Ellipse 43" rx="3.02147" ry="2.98717" transform="matrix(-1 0 0 1 1060.02 594.926)" fill="#AA95E4"/>
<ellipse id="Ellipse 44" rx="3.02147" ry="2.98717" transform="matrix(-1 0 0 1 1060.02 625.992)" fill="#AA95E4"/>
<ellipse id="Ellipse 45" rx="3.02147" ry="2.98717" transform="matrix(-1 0 0 1 1060.02 655.864)" fill="#AA95E4"/>
<ellipse id="Ellipse 46" rx="3.02147" ry="2.98717" transform="matrix(-1 0 0 1 1060.02 686.931)" fill="#AA95E4"/>
<ellipse id="Ellipse 47" rx="3.02147" ry="2.98717" transform="matrix(-1 0 0 1 1060.02 716.802)" fill="#AA95E4"/>
<ellipse id="Ellipse 48" rx="3.02147" ry="2.98717" transform="matrix(-1 0 0 1 1060.02 747.869)" fill="#AA95E4"/>
<ellipse id="Ellipse 49" rx="3.02147" ry="2.98717" transform="matrix(-1 0 0 1 1205.05 533.987)" fill="#AA95E4"/>
<ellipse id="Ellipse 50" rx="3.02147" ry="2.98717" transform="matrix(-1 0 0 1 1205.05 565.054)" fill="#AA95E4"/>
<ellipse id="Ellipse 51" rx="3.02147" ry="2.98717" transform="matrix(-1 0 0 1 1205.05 594.926)" fill="#AA95E4"/>
<ellipse id="Ellipse 52" rx="3.02147" ry="2.98717" transform="matrix(-1 0 0 1 1205.05 625.992)" fill="#AA95E4"/>
<ellipse id="Ellipse 53" rx="3.02147" ry="2.98717" transform="matrix(-1 0 0 1 1205.05 655.864)" fill="#AA95E4"/>
<ellipse id="Ellipse 54" rx="3.02147" ry="2.98717" transform="matrix(-1 0 0 1 1205.05 686.931)" fill="#AA95E4"/>
<ellipse id="Ellipse 55" rx="3.02147" ry="2.98717" transform="matrix(-1 0 0 1 1205.05 716.802)" fill="#AA95E4"/>
<ellipse id="Ellipse 56" rx="3.02147" ry="2.98717" transform="matrix(-1 0 0 1 1205.05 747.869)" fill="#AA95E4"/>
<ellipse id="Ellipse 57" rx="3.02147" ry="2.98717" transform="matrix(-1 0 0 1 1229.22 533.987)" fill="#AA95E4"/>
<ellipse id="Ellipse 58" rx="3.02147" ry="2.98717" transform="matrix(-1 0 0 1 1229.22 565.054)" fill="#AA95E4"/>
<ellipse id="Ellipse 59" rx="3.02147" ry="2.98717" transform="matrix(-1 0 0 1 1229.22 594.926)" fill="#AA95E4"/>
<ellipse id="Ellipse 60" rx="3.02147" ry="2.98717" transform="matrix(-1 0 0 1 1229.22 625.992)" fill="#AA95E4"/>
<ellipse id="Ellipse 61" rx="3.02147" ry="2.98717" transform="matrix(-1 0 0 1 1229.22 655.864)" fill="#AA95E4"/>
<ellipse id="Ellipse 62" rx="3.02147" ry="2.98717" transform="matrix(-1 0 0 1 1229.22 686.931)" fill="#AA95E4"/>
<ellipse id="Ellipse 63" rx="3.02147" ry="2.98717" transform="matrix(-1 0 0 1 1229.22 716.802)" fill="#AA95E4"/>
<ellipse id="Ellipse 64" rx="3.02147" ry="2.98717" transform="matrix(-1 0 0 1 1229.22 747.869)" fill="#AA95E4"/>
<ellipse id="Ellipse 65" rx="3.02147" ry="2.98717" transform="matrix(-1 0 0 1 1253.4 533.987)" fill="#AA95E4"/>
<ellipse id="Ellipse 66" rx="3.02147" ry="2.98717" transform="matrix(-1 0 0 1 1253.4 565.054)" fill="#AA95E4"/>
<ellipse id="Ellipse 67" rx="3.02147" ry="2.98717" transform="matrix(-1 0 0 1 1253.4 594.926)" fill="#AA95E4"/>
<ellipse id="Ellipse 68" rx="3.02147" ry="2.98717" transform="matrix(-1 0 0 1 1253.4 625.992)" fill="#AA95E4"/>
<ellipse id="Ellipse 69" rx="3.02147" ry="2.98717" transform="matrix(-1 0 0 1 1253.4 655.864)" fill="#AA95E4"/>
<ellipse id="Ellipse 70" rx="3.02147" ry="2.98717" transform="matrix(-1 0 0 1 1253.4 686.931)" fill="#AA95E4"/>
<ellipse id="Ellipse 71" rx="3.02147" ry="2.98717" transform="matrix(-1 0 0 1 1253.4 716.802)" fill="#AA95E4"/>
<ellipse id="Ellipse 72" rx="3.02147" ry="2.98717" transform="matrix(-1 0 0 1 1253.4 747.869)" fill="#AA95E4"/>
<ellipse id="Ellipse 73" rx="3.02147" ry="2.98717" transform="matrix(-1 0 0 1 1277.57 533.987)" fill="#AA95E4"/>
<ellipse id="Ellipse 74" rx="3.02147" ry="2.98717" transform="matrix(-1 0 0 1 1277.57 565.054)" fill="#AA95E4"/>
<ellipse id="Ellipse 75" rx="3.02147" ry="2.98717" transform="matrix(-1 0 0 1 1277.57 594.926)" fill="#AA95E4"/>
<ellipse id="Ellipse 76" rx="3.02147" ry="2.98717" transform="matrix(-1 0 0 1 1277.57 625.992)" fill="#AA95E4"/>
<ellipse id="Ellipse 77" rx="3.02147" ry="2.98717" transform="matrix(-1 0 0 1 1277.57 655.864)" fill="#AA95E4"/>
<ellipse id="Ellipse 78" rx="3.02147" ry="2.98717" transform="matrix(-1 0 0 1 1277.57 686.931)" fill="#AA95E4"/>
<ellipse id="Ellipse 79" rx="3.02147" ry="2.98717" transform="matrix(-1 0 0 1 1277.57 716.802)" fill="#AA95E4"/>
<ellipse id="Ellipse 80" rx="3.02147" ry="2.98717" transform="matrix(-1 0 0 1 1277.57 747.869)" fill="#AA95E4"/>
</g>
<mask id="mask0" mask-type="alpha" maskUnits="userSpaceOnUse" x="-622" y="41" width="1118" height="1118">
<rect id="Container" width="976.458" height="722.167" rx="100" transform="matrix(-0.680493 0.732755 0.741555 0.670892 1.47314 0)" fill="#714ADE"/>
</mask>
<g mask="url(#mask0)">
<rect id="Container_2" width="976.458" height="722.167" rx="100" transform="matrix(-0.680493 0.732755 0.741555 0.670892 1.47314 0)" fill="#714ADE"/>
<g id="DotGridBottom">
<ellipse id="Ellipse 1_2" rx="3.02147" ry="2.98717" transform="matrix(-1 0 0 1 109.881 820.987)" fill="white" fill-opacity="0.75"/>
<ellipse id="Ellipse 2_2" rx="3.02147" ry="2.98717" transform="matrix(-1 0 0 1 109.881 852.054)" fill="white" fill-opacity="0.75"/>
<ellipse id="Ellipse 3_2" rx="3.02147" ry="2.98717" transform="matrix(-1 0 0 1 109.881 881.926)" fill="white" fill-opacity="0.75"/>
<ellipse id="Ellipse 4_2" rx="3.02147" ry="2.98717" transform="matrix(-1 0 0 1 109.881 912.992)" fill="white" fill-opacity="0.75"/>
<ellipse id="Ellipse 5_2" rx="3.02147" ry="2.98717" transform="matrix(-1 0 0 1 109.881 942.864)" fill="white" fill-opacity="0.75"/>
<ellipse id="Ellipse 6_2" rx="3.02147" ry="2.98717" transform="matrix(-1 0 0 1 109.881 973.931)" fill="white" fill-opacity="0.75"/>
<ellipse id="Ellipse 7_2" rx="3.02147" ry="2.98717" transform="matrix(-1 0 0 1 109.881 1003.8)" fill="white" fill-opacity="0.75"/>
<ellipse id="Ellipse 8_2" rx="3.02147" ry="2.98717" transform="matrix(-1 0 0 1 109.881 1034.87)" fill="white" fill-opacity="0.75"/>
<ellipse id="Ellipse 9_2" rx="3.02147" ry="2.98717" transform="matrix(-1 0 0 1 85.7091 820.987)" fill="white" fill-opacity="0.75"/>
<ellipse id="Ellipse 10_2" rx="3.02147" ry="2.98717" transform="matrix(-1 0 0 1 85.7091 852.054)" fill="white" fill-opacity="0.75"/>
<ellipse id="Ellipse 11_2" rx="3.02147" ry="2.98717" transform="matrix(-1 0 0 1 85.7091 881.926)" fill="white" fill-opacity="0.75"/>
<ellipse id="Ellipse 12_2" rx="3.02147" ry="2.98717" transform="matrix(-1 0 0 1 85.7091 912.992)" fill="white" fill-opacity="0.75"/>
<ellipse id="Ellipse 13_2" rx="3.02147" ry="2.98717" transform="matrix(-1 0 0 1 85.7091 942.864)" fill="white" fill-opacity="0.75"/>
<ellipse id="Ellipse 14_2" rx="3.02147" ry="2.98717" transform="matrix(-1 0 0 1 85.7091 973.931)" fill="white" fill-opacity="0.75"/>
<ellipse id="Ellipse 15_2" rx="3.02147" ry="2.98717" transform="matrix(-1 0 0 1 85.7091 1003.8)" fill="white" fill-opacity="0.75"/>
<ellipse id="Ellipse 16_2" rx="3.02147" ry="2.98717" transform="matrix(-1 0 0 1 85.7091 1034.87)" fill="white" fill-opacity="0.75"/>
<ellipse id="Ellipse 17_2" rx="3.02147" ry="2.98717" transform="matrix(-1 0 0 1 61.5375 820.987)" fill="white" fill-opacity="0.75"/>
<ellipse id="Ellipse 18_2" rx="3.02147" ry="2.98717" transform="matrix(-1 0 0 1 61.5374 852.054)" fill="white" fill-opacity="0.75"/>
<ellipse id="Ellipse 19_2" rx="3.02147" ry="2.98717" transform="matrix(-1 0 0 1 61.5374 881.926)" fill="white" fill-opacity="0.75"/>
<ellipse id="Ellipse 20_2" rx="3.02147" ry="2.98717" transform="matrix(-1 0 0 1 61.5374 912.992)" fill="white" fill-opacity="0.75"/>
<ellipse id="Ellipse 21_2" rx="3.02147" ry="2.98717" transform="matrix(-1 0 0 1 61.5374 942.864)" fill="white" fill-opacity="0.75"/>
<ellipse id="Ellipse 22_2" rx="3.02147" ry="2.98717" transform="matrix(-1 0 0 1 61.5374 973.931)" fill="white" fill-opacity="0.75"/>
<ellipse id="Ellipse 23_2" rx="3.02147" ry="2.98717" transform="matrix(-1 0 0 1 61.5374 1003.8)" fill="white" fill-opacity="0.75"/>
<ellipse id="Ellipse 24_2" rx="3.02147" ry="2.98717" transform="matrix(-1 0 0 1 61.5374 1034.87)" fill="white" fill-opacity="0.75"/>
<ellipse id="Ellipse 25_2" rx="3.02147" ry="2.98717" transform="matrix(-1 0 0 1 37.3657 820.987)" fill="white" fill-opacity="0.75"/>
<ellipse id="Ellipse 26_2" rx="3.02147" ry="2.98717" transform="matrix(-1 0 0 1 37.3657 852.054)" fill="white" fill-opacity="0.75"/>
<ellipse id="Ellipse 27_2" rx="3.02147" ry="2.98717" transform="matrix(-1 0 0 1 37.3657 881.926)" fill="white" fill-opacity="0.75"/>
<ellipse id="Ellipse 28_2" rx="3.02147" ry="2.98717" transform="matrix(-1 0 0 1 37.3657 912.992)" fill="white" fill-opacity="0.75"/>
<ellipse id="Ellipse 29_2" rx="3.02147" ry="2.98717" transform="matrix(-1 0 0 1 37.3657 942.864)" fill="white" fill-opacity="0.75"/>
<ellipse id="Ellipse 30_2" rx="3.02147" ry="2.98717" transform="matrix(-1 0 0 1 37.3657 973.931)" fill="white" fill-opacity="0.75"/>
<ellipse id="Ellipse 31_2" rx="3.02147" ry="2.98717" transform="matrix(-1 0 0 1 37.3657 1003.8)" fill="white" fill-opacity="0.75"/>
<ellipse id="Ellipse 32_2" rx="3.02147" ry="2.98717" transform="matrix(-1 0 0 1 37.3657 1034.87)" fill="white" fill-opacity="0.75"/>
<ellipse id="Ellipse 33_2" rx="3.02147" ry="2.98717" transform="matrix(-1 0 0 1 13.194 820.987)" fill="white" fill-opacity="0.75"/>
<ellipse id="Ellipse 34_2" rx="3.02147" ry="2.98717" transform="matrix(-1 0 0 1 13.1939 852.054)" fill="white" fill-opacity="0.75"/>
<ellipse id="Ellipse 35_2" rx="3.02147" ry="2.98717" transform="matrix(-1 0 0 1 13.1939 881.926)" fill="white" fill-opacity="0.75"/>
<ellipse id="Ellipse 36_2" rx="3.02147" ry="2.98717" transform="matrix(-1 0 0 1 13.1939 912.992)" fill="white" fill-opacity="0.75"/>
<ellipse id="Ellipse 37_2" rx="3.02147" ry="2.98717" transform="matrix(-1 0 0 1 13.1939 942.864)" fill="white" fill-opacity="0.75"/>
<ellipse id="Ellipse 38_2" rx="3.02147" ry="2.98717" transform="matrix(-1 0 0 1 13.1939 973.931)" fill="white" fill-opacity="0.75"/>
<ellipse id="Ellipse 39_2" rx="3.02147" ry="2.98717" transform="matrix(-1 0 0 1 13.1939 1003.8)" fill="white" fill-opacity="0.75"/>
<ellipse id="Ellipse 40_2" rx="3.02147" ry="2.98717" transform="matrix(-1 0 0 1 13.1939 1034.87)" fill="white" fill-opacity="0.75"/>
<ellipse id="Ellipse 49_2" rx="3.02147" ry="2.98717" transform="matrix(-1 0 0 1 134.053 820.987)" fill="white" fill-opacity="0.75"/>
<ellipse id="Ellipse 50_2" rx="3.02147" ry="2.98717" transform="matrix(-1 0 0 1 134.053 852.054)" fill="white" fill-opacity="0.75"/>
<ellipse id="Ellipse 51_2" rx="3.02147" ry="2.98717" transform="matrix(-1 0 0 1 134.053 881.926)" fill="white" fill-opacity="0.75"/>
<ellipse id="Ellipse 52_2" rx="3.02147" ry="2.98717" transform="matrix(-1 0 0 1 134.053 912.992)" fill="white" fill-opacity="0.75"/>
<ellipse id="Ellipse 53_2" rx="3.02147" ry="2.98717" transform="matrix(-1 0 0 1 134.053 942.864)" fill="white" fill-opacity="0.75"/>
<ellipse id="Ellipse 54_2" rx="3.02147" ry="2.98717" transform="matrix(-1 0 0 1 134.053 973.931)" fill="white" fill-opacity="0.75"/>
<ellipse id="Ellipse 55_2" rx="3.02147" ry="2.98717" transform="matrix(-1 0 0 1 134.053 1003.8)" fill="white" fill-opacity="0.75"/>
<ellipse id="Ellipse 56_2" rx="3.02147" ry="2.98717" transform="matrix(-1 0 0 1 134.053 1034.87)" fill="white" fill-opacity="0.75"/>
<ellipse id="Ellipse 57_2" rx="3.02147" ry="2.98717" transform="matrix(-1 0 0 1 158.224 820.987)" fill="white" fill-opacity="0.75"/>
<ellipse id="Ellipse 58_2" rx="3.02147" ry="2.98717" transform="matrix(-1 0 0 1 158.224 852.054)" fill="white" fill-opacity="0.75"/>
<ellipse id="Ellipse 59_2" rx="3.02147" ry="2.98717" transform="matrix(-1 0 0 1 158.224 881.926)" fill="white" fill-opacity="0.75"/>
<ellipse id="Ellipse 60_2" rx="3.02147" ry="2.98717" transform="matrix(-1 0 0 1 158.224 912.992)" fill="white" fill-opacity="0.75"/>
<ellipse id="Ellipse 61_2" rx="3.02147" ry="2.98717" transform="matrix(-1 0 0 1 158.224 942.864)" fill="white" fill-opacity="0.75"/>
<ellipse id="Ellipse 62_2" rx="3.02147" ry="2.98717" transform="matrix(-1 0 0 1 158.224 973.931)" fill="white" fill-opacity="0.75"/>
<ellipse id="Ellipse 63_2" rx="3.02147" ry="2.98717" transform="matrix(-1 0 0 1 158.224 1003.8)" fill="white" fill-opacity="0.75"/>
<ellipse id="Ellipse 64_2" rx="3.02147" ry="2.98717" transform="matrix(-1 0 0 1 158.224 1034.87)" fill="white" fill-opacity="0.75"/>
<ellipse id="Ellipse 65_2" rx="3.02147" ry="2.98717" transform="matrix(-1 0 0 1 182.396 820.987)" fill="white" fill-opacity="0.75"/>
<ellipse id="Ellipse 66_2" rx="3.02147" ry="2.98717" transform="matrix(-1 0 0 1 182.396 852.054)" fill="white" fill-opacity="0.75"/>
<ellipse id="Ellipse 67_2" rx="3.02147" ry="2.98717" transform="matrix(-1 0 0 1 182.396 881.926)" fill="white" fill-opacity="0.75"/>
<ellipse id="Ellipse 68_2" rx="3.02147" ry="2.98717" transform="matrix(-1 0 0 1 182.396 912.992)" fill="white" fill-opacity="0.75"/>
<ellipse id="Ellipse 69_2" rx="3.02147" ry="2.98717" transform="matrix(-1 0 0 1 182.396 942.864)" fill="white" fill-opacity="0.75"/>
<ellipse id="Ellipse 70_2" rx="3.02147" ry="2.98717" transform="matrix(-1 0 0 1 182.396 973.931)" fill="white" fill-opacity="0.75"/>
<ellipse id="Ellipse 71_2" rx="3.02147" ry="2.98717" transform="matrix(-1 0 0 1 182.396 1003.8)" fill="white" fill-opacity="0.75"/>
<ellipse id="Ellipse 72_2" rx="3.02147" ry="2.98717" transform="matrix(-1 0 0 1 182.396 1034.87)" fill="white" fill-opacity="0.75"/>
<ellipse id="Ellipse 73_2" rx="3.02147" ry="2.98717" transform="matrix(-1 0 0 1 206.568 820.987)" fill="white" fill-opacity="0.75"/>
<ellipse id="Ellipse 74_2" rx="3.02147" ry="2.98717" transform="matrix(-1 0 0 1 206.568 852.054)" fill="white" fill-opacity="0.75"/>
<ellipse id="Ellipse 75_2" rx="3.02147" ry="2.98717" transform="matrix(-1 0 0 1 206.568 881.926)" fill="white" fill-opacity="0.75"/>
<ellipse id="Ellipse 76_2" rx="3.02147" ry="2.98717" transform="matrix(-1 0 0 1 206.568 912.992)" fill="white" fill-opacity="0.75"/>
<ellipse id="Ellipse 77_2" rx="3.02147" ry="2.98717" transform="matrix(-1 0 0 1 206.568 942.864)" fill="white" fill-opacity="0.75"/>
<ellipse id="Ellipse 78_2" rx="3.02147" ry="2.98717" transform="matrix(-1 0 0 1 206.568 973.931)" fill="white" fill-opacity="0.75"/>
<ellipse id="Ellipse 79_2" rx="3.02147" ry="2.98717" transform="matrix(-1 0 0 1 206.568 1003.8)" fill="white" fill-opacity="0.75"/>
<ellipse id="Ellipse 80_2" rx="3.02147" ry="2.98717" transform="matrix(-1 0 0 1 206.568 1034.87)" fill="white" fill-opacity="0.75"/>
</g>
<g id="DotGridTop_2">
<ellipse id="Ellipse 1_3" rx="3.02147" ry="2.98717" transform="matrix(-1 0 0 1 390.884 254.987)" fill="#AA95E4"/>
<ellipse id="Ellipse 2_3" rx="3.02147" ry="2.98717" transform="matrix(-1 0 0 1 390.884 286.054)" fill="#AA95E4"/>
<ellipse id="Ellipse 3_3" rx="3.02147" ry="2.98717" transform="matrix(-1 0 0 1 390.884 315.926)" fill="#AA95E4"/>
<ellipse id="Ellipse 4_3" rx="3.02147" ry="2.98717" transform="matrix(-1 0 0 1 390.884 346.992)" fill="#AA95E4"/>
<ellipse id="Ellipse 5_3" rx="3.02147" ry="2.98717" transform="matrix(-1 0 0 1 390.884 376.864)" fill="#AA95E4"/>
<ellipse id="Ellipse 6_3" rx="3.02147" ry="2.98717" transform="matrix(-1 0 0 1 390.884 407.931)" fill="#AA95E4"/>
<ellipse id="Ellipse 7_3" rx="3.02147" ry="2.98717" transform="matrix(-1 0 0 1 390.884 437.802)" fill="#AA95E4"/>
<ellipse id="Ellipse 8_3" rx="3.02147" ry="2.98717" transform="matrix(-1 0 0 1 390.884 468.869)" fill="#AA95E4"/>
<ellipse id="Ellipse 9_3" rx="3.02147" ry="2.98717" transform="matrix(-1 0 0 1 366.713 254.987)" fill="#AA95E4"/>
<ellipse id="Ellipse 10_3" rx="3.02147" ry="2.98717" transform="matrix(-1 0 0 1 366.713 286.054)" fill="#AA95E4"/>
<ellipse id="Ellipse 11_3" rx="3.02147" ry="2.98717" transform="matrix(-1 0 0 1 366.713 315.926)" fill="#AA95E4"/>
<ellipse id="Ellipse 12_3" rx="3.02147" ry="2.98717" transform="matrix(-1 0 0 1 366.713 346.992)" fill="#AA95E4"/>
<ellipse id="Ellipse 13_3" rx="3.02147" ry="2.98717" transform="matrix(-1 0 0 1 366.713 376.864)" fill="#AA95E4"/>
<ellipse id="Ellipse 14_3" rx="3.02147" ry="2.98717" transform="matrix(-1 0 0 1 366.713 407.931)" fill="#AA95E4"/>
<ellipse id="Ellipse 15_3" rx="3.02147" ry="2.98717" transform="matrix(-1 0 0 1 366.713 437.802)" fill="#AA95E4"/>
<ellipse id="Ellipse 16_3" rx="3.02147" ry="2.98717" transform="matrix(-1 0 0 1 366.713 468.869)" fill="#AA95E4"/>
<ellipse id="Ellipse 17_3" rx="3.02147" ry="2.98717" transform="matrix(-1 0 0 1 342.541 254.987)" fill="#AA95E4"/>
<ellipse id="Ellipse 18_3" rx="3.02147" ry="2.98717" transform="matrix(-1 0 0 1 342.541 286.054)" fill="#AA95E4"/>
<ellipse id="Ellipse 19_3" rx="3.02147" ry="2.98717" transform="matrix(-1 0 0 1 342.541 315.926)" fill="#AA95E4"/>
<ellipse id="Ellipse 20_3" rx="3.02147" ry="2.98717" transform="matrix(-1 0 0 1 342.541 346.992)" fill="#AA95E4"/>
<ellipse id="Ellipse 21_3" rx="3.02147" ry="2.98717" transform="matrix(-1 0 0 1 342.541 376.864)" fill="#AA95E4"/>
<ellipse id="Ellipse 22_3" rx="3.02147" ry="2.98717" transform="matrix(-1 0 0 1 342.541 407.931)" fill="#AA95E4"/>
<ellipse id="Ellipse 23_3" rx="3.02147" ry="2.98717" transform="matrix(-1 0 0 1 342.541 437.802)" fill="#AA95E4"/>
<ellipse id="Ellipse 24_3" rx="3.02147" ry="2.98717" transform="matrix(-1 0 0 1 342.541 468.869)" fill="#AA95E4"/>
<ellipse id="Ellipse 25_3" rx="3.02147" ry="2.98717" transform="matrix(-1 0 0 1 318.369 254.987)" fill="#AA95E4"/>
<ellipse id="Ellipse 26_3" rx="3.02147" ry="2.98717" transform="matrix(-1 0 0 1 318.369 286.054)" fill="#AA95E4"/>
<ellipse id="Ellipse 27_3" rx="3.02147" ry="2.98717" transform="matrix(-1 0 0 1 318.369 315.926)" fill="#AA95E4"/>
<ellipse id="Ellipse 28_3" rx="3.02147" ry="2.98717" transform="matrix(-1 0 0 1 318.369 346.992)" fill="#AA95E4"/>
<ellipse id="Ellipse 29_3" rx="3.02147" ry="2.98717" transform="matrix(-1 0 0 1 318.369 376.864)" fill="#AA95E4"/>
<ellipse id="Ellipse 30_3" rx="3.02147" ry="2.98717" transform="matrix(-1 0 0 1 318.369 407.931)" fill="#AA95E4"/>
<ellipse id="Ellipse 31_3" rx="3.02147" ry="2.98717" transform="matrix(-1 0 0 1 318.369 437.802)" fill="#AA95E4"/>
<ellipse id="Ellipse 32_3" rx="3.02147" ry="2.98717" transform="matrix(-1 0 0 1 318.369 468.869)" fill="#AA95E4"/>
<ellipse id="Ellipse 33_3" rx="3.02147" ry="2.98717" transform="matrix(-1 0 0 1 294.198 254.987)" fill="#AA95E4"/>
<ellipse id="Ellipse 34_3" rx="3.02147" ry="2.98717" transform="matrix(-1 0 0 1 294.198 286.054)" fill="#AA95E4"/>
<ellipse id="Ellipse 35_3" rx="3.02147" ry="2.98717" transform="matrix(-1 0 0 1 294.198 315.926)" fill="#AA95E4"/>
<ellipse id="Ellipse 36_3" rx="3.02147" ry="2.98717" transform="matrix(-1 0 0 1 294.198 346.992)" fill="#AA95E4"/>
<ellipse id="Ellipse 37_3" rx="3.02147" ry="2.98717" transform="matrix(-1 0 0 1 294.198 376.864)" fill="#AA95E4"/>
<ellipse id="Ellipse 38_3" rx="3.02147" ry="2.98717" transform="matrix(-1 0 0 1 294.198 407.931)" fill="#AA95E4"/>
<ellipse id="Ellipse 39_3" rx="3.02147" ry="2.98717" transform="matrix(-1 0 0 1 294.198 437.802)" fill="#AA95E4"/>
<ellipse id="Ellipse 40_3" rx="3.02147" ry="2.98717" transform="matrix(-1 0 0 1 294.198 468.869)" fill="#AA95E4"/>
<ellipse id="Ellipse 41_2" rx="3.02147" ry="2.98717" transform="matrix(-1 0 0 1 270.026 254.987)" fill="#AA95E4"/>
<ellipse id="Ellipse 42_2" rx="3.02147" ry="2.98717" transform="matrix(-1 0 0 1 270.026 286.054)" fill="#AA95E4"/>
<ellipse id="Ellipse 43_2" rx="3.02147" ry="2.98717" transform="matrix(-1 0 0 1 270.026 315.926)" fill="#AA95E4"/>
<ellipse id="Ellipse 44_2" rx="3.02147" ry="2.98717" transform="matrix(-1 0 0 1 270.026 346.992)" fill="#AA95E4"/>
<ellipse id="Ellipse 45_2" rx="3.02147" ry="2.98717" transform="matrix(-1 0 0 1 270.026 376.864)" fill="#AA95E4"/>
<ellipse id="Ellipse 46_2" rx="3.02147" ry="2.98717" transform="matrix(-1 0 0 1 270.026 407.931)" fill="#AA95E4"/>
<ellipse id="Ellipse 47_2" rx="3.02147" ry="2.98717" transform="matrix(-1 0 0 1 270.026 437.802)" fill="#AA95E4"/>
<ellipse id="Ellipse 48_2" rx="3.02147" ry="2.98717" transform="matrix(-1 0 0 1 270.026 468.869)" fill="#AA95E4"/>
<ellipse id="Ellipse 49_3" rx="3.02147" ry="2.98717" transform="matrix(-1 0 0 1 415.056 254.987)" fill="#AA95E4"/>
<ellipse id="Ellipse 50_3" rx="3.02147" ry="2.98717" transform="matrix(-1 0 0 1 415.056 286.054)" fill="#AA95E4"/>
<ellipse id="Ellipse 51_3" rx="3.02147" ry="2.98717" transform="matrix(-1 0 0 1 415.056 315.926)" fill="#AA95E4"/>
<ellipse id="Ellipse 52_3" rx="3.02147" ry="2.98717" transform="matrix(-1 0 0 1 415.056 346.992)" fill="#AA95E4"/>
<ellipse id="Ellipse 53_3" rx="3.02147" ry="2.98717" transform="matrix(-1 0 0 1 415.056 376.864)" fill="#AA95E4"/>
<ellipse id="Ellipse 54_3" rx="3.02147" ry="2.98717" transform="matrix(-1 0 0 1 415.056 407.931)" fill="#AA95E4"/>
<ellipse id="Ellipse 55_3" rx="3.02147" ry="2.98717" transform="matrix(-1 0 0 1 415.056 437.802)" fill="#AA95E4"/>
<ellipse id="Ellipse 56_3" rx="3.02147" ry="2.98717" transform="matrix(-1 0 0 1 415.056 468.869)" fill="#AA95E4"/>
<ellipse id="Ellipse 57_3" rx="3.02147" ry="2.98717" transform="matrix(-1 0 0 1 439.228 254.987)" fill="#AA95E4"/>
<ellipse id="Ellipse 58_3" rx="3.02147" ry="2.98717" transform="matrix(-1 0 0 1 439.228 286.054)" fill="#AA95E4"/>
<ellipse id="Ellipse 59_3" rx="3.02147" ry="2.98717" transform="matrix(-1 0 0 1 439.228 315.926)" fill="#AA95E4"/>
<ellipse id="Ellipse 60_3" rx="3.02147" ry="2.98717" transform="matrix(-1 0 0 1 439.228 346.992)" fill="#AA95E4"/>
<ellipse id="Ellipse 61_3" rx="3.02147" ry="2.98717" transform="matrix(-1 0 0 1 439.228 376.864)" fill="#AA95E4"/>
<ellipse id="Ellipse 62_3" rx="3.02147" ry="2.98717" transform="matrix(-1 0 0 1 439.228 407.931)" fill="#AA95E4"/>
<ellipse id="Ellipse 63_3" rx="3.02147" ry="2.98717" transform="matrix(-1 0 0 1 439.228 437.802)" fill="#AA95E4"/>
<ellipse id="Ellipse 64_3" rx="3.02147" ry="2.98717" transform="matrix(-1 0 0 1 439.228 468.869)" fill="#AA95E4"/>
<ellipse id="Ellipse 65_3" rx="3.02147" ry="2.98717" transform="matrix(-1 0 0 1 463.4 254.987)" fill="#AA95E4"/>
<ellipse id="Ellipse 66_3" rx="3.02147" ry="2.98717" transform="matrix(-1 0 0 1 463.4 286.054)" fill="#AA95E4"/>
<ellipse id="Ellipse 67_3" rx="3.02147" ry="2.98717" transform="matrix(-1 0 0 1 463.4 315.926)" fill="#AA95E4"/>
<ellipse id="Ellipse 68_3" rx="3.02147" ry="2.98717" transform="matrix(-1 0 0 1 463.4 346.992)" fill="#AA95E4"/>
<ellipse id="Ellipse 69_3" rx="3.02147" ry="2.98717" transform="matrix(-1 0 0 1 463.4 376.864)" fill="#AA95E4"/>
<ellipse id="Ellipse 70_3" rx="3.02147" ry="2.98717" transform="matrix(-1 0 0 1 463.4 407.931)" fill="#AA95E4"/>
<ellipse id="Ellipse 71_3" rx="3.02147" ry="2.98717" transform="matrix(-1 0 0 1 463.4 437.802)" fill="#AA95E4"/>
<ellipse id="Ellipse 72_3" rx="3.02147" ry="2.98717" transform="matrix(-1 0 0 1 463.4 468.869)" fill="#AA95E4"/>
<ellipse id="Ellipse 73_3" rx="3.02147" ry="2.98717" transform="matrix(-1 0 0 1 487.571 254.987)" fill="#AA95E4"/>
<ellipse id="Ellipse 74_3" rx="3.02147" ry="2.98717" transform="matrix(-1 0 0 1 487.571 286.054)" fill="#AA95E4"/>
<ellipse id="Ellipse 75_3" rx="3.02147" ry="2.98717" transform="matrix(-1 0 0 1 487.571 315.926)" fill="#AA95E4"/>
<ellipse id="Ellipse 76_3" rx="3.02147" ry="2.98717" transform="matrix(-1 0 0 1 487.571 346.992)" fill="#AA95E4"/>
<ellipse id="Ellipse 77_3" rx="3.02147" ry="2.98717" transform="matrix(-1 0 0 1 487.571 376.864)" fill="#AA95E4"/>
<ellipse id="Ellipse 78_3" rx="3.02147" ry="2.98717" transform="matrix(-1 0 0 1 487.571 407.931)" fill="#AA95E4"/>
<ellipse id="Ellipse 79_3" rx="3.02147" ry="2.98717" transform="matrix(-1 0 0 1 487.571 437.802)" fill="#AA95E4"/>
<ellipse id="Ellipse 80_3" rx="3.02147" ry="2.98717" transform="matrix(-1 0 0 1 487.571 468.869)" fill="#AA95E4"/>
</g>
<g id="Group 1">
<rect id="Rectangle 3" width="17.4689" height="17.4689" rx="5" transform="matrix(-0.713033 -0.70113 -0.713033 0.70113 179.711 418.409)" fill="#BDAAF5" fill-opacity="0.5"/>
<rect id="Rectangle 2" width="23.2919" height="23.2919" rx="5" transform="matrix(-0.713033 -0.70113 -0.713033 0.70113 65.2163 347.568)" fill="#BDAAF5" fill-opacity="0.5"/>
<rect id="Rectangle 1" width="58.2296" height="58.2296" rx="5" transform="matrix(0.713033 -0.70113 -0.713033 -0.70113 128.136 293.653)" fill="#BDAAF5" fill-opacity="0.25"/>
</g>
</g>
</g>
</svg>
