<svg width="537" height="1064" viewBox="0 0 537 1064" fill="none" xmlns="http://www.w3.org/2000/svg">
<g id="HeaderSVG">
<mask id="mask0" mask-type="alpha" maskUnits="userSpaceOnUse" x="-622" y="41" width="1118" height="1118">
<rect id="Container" width="976.458" height="722.167" rx="100" transform="matrix(-0.680493 0.732755 0.741555 0.670892 1.47314 0)" fill="#714ADE"/>
</mask>
<g mask="url(#mask0)">
<rect id="Container_2" width="976.458" height="722.167" rx="100" transform="matrix(-0.680493 0.732755 0.741555 0.670892 1.47314 0)" fill="#714ADE"/>
<g id="DotGridBottom">
<ellipse id="Ellipse 1" rx="3.02147" ry="2.98717" transform="matrix(-1 0 0 1 109.88 820.987)" fill="white" fill-opacity="0.75"/>
<ellipse id="Ellipse 2" rx="3.02147" ry="2.98717" transform="matrix(-1 0 0 1 109.88 852.054)" fill="white" fill-opacity="0.75"/>
<ellipse id="Ellipse 3" rx="3.02147" ry="2.98717" transform="matrix(-1 0 0 1 109.88 881.926)" fill="white" fill-opacity="0.75"/>
<ellipse id="Ellipse 4" rx="3.02147" ry="2.98717" transform="matrix(-1 0 0 1 109.88 912.992)" fill="white" fill-opacity="0.75"/>
<ellipse id="Ellipse 5" rx="3.02147" ry="2.98717" transform="matrix(-1 0 0 1 109.88 942.864)" fill="white" fill-opacity="0.75"/>
<ellipse id="Ellipse 6" rx="3.02147" ry="2.98717" transform="matrix(-1 0 0 1 109.88 973.931)" fill="white" fill-opacity="0.75"/>
<ellipse id="Ellipse 7" rx="3.02147" ry="2.98717" transform="matrix(-1 0 0 1 109.88 1003.8)" fill="white" fill-opacity="0.75"/>
<ellipse id="Ellipse 8" rx="3.02147" ry="2.98717" transform="matrix(-1 0 0 1 109.88 1034.87)" fill="white" fill-opacity="0.75"/>
<ellipse id="Ellipse 9" rx="3.02147" ry="2.98717" transform="matrix(-1 0 0 1 85.7085 820.987)" fill="white" fill-opacity="0.75"/>
<ellipse id="Ellipse 10" rx="3.02147" ry="2.98717" transform="matrix(-1 0 0 1 85.7085 852.054)" fill="white" fill-opacity="0.75"/>
<ellipse id="Ellipse 11" rx="3.02147" ry="2.98717" transform="matrix(-1 0 0 1 85.7085 881.926)" fill="white" fill-opacity="0.75"/>
<ellipse id="Ellipse 12" rx="3.02147" ry="2.98717" transform="matrix(-1 0 0 1 85.7085 912.992)" fill="white" fill-opacity="0.75"/>
<ellipse id="Ellipse 13" rx="3.02147" ry="2.98717" transform="matrix(-1 0 0 1 85.7085 942.864)" fill="white" fill-opacity="0.75"/>
<ellipse id="Ellipse 14" rx="3.02147" ry="2.98717" transform="matrix(-1 0 0 1 85.7085 973.931)" fill="white" fill-opacity="0.75"/>
<ellipse id="Ellipse 15" rx="3.02147" ry="2.98717" transform="matrix(-1 0 0 1 85.7085 1003.8)" fill="white" fill-opacity="0.75"/>
<ellipse id="Ellipse 16" rx="3.02147" ry="2.98717" transform="matrix(-1 0 0 1 85.7085 1034.87)" fill="white" fill-opacity="0.75"/>
<ellipse id="Ellipse 17" rx="3.02147" ry="2.98717" transform="matrix(-1 0 0 1 61.5369 820.987)" fill="white" fill-opacity="0.75"/>
<ellipse id="Ellipse 18" rx="3.02147" ry="2.98717" transform="matrix(-1 0 0 1 61.5368 852.054)" fill="white" fill-opacity="0.75"/>
<ellipse id="Ellipse 19" rx="3.02147" ry="2.98717" transform="matrix(-1 0 0 1 61.5368 881.926)" fill="white" fill-opacity="0.75"/>
<ellipse id="Ellipse 20" rx="3.02147" ry="2.98717" transform="matrix(-1 0 0 1 61.5368 912.992)" fill="white" fill-opacity="0.75"/>
<ellipse id="Ellipse 21" rx="3.02147" ry="2.98717" transform="matrix(-1 0 0 1 61.5368 942.864)" fill="white" fill-opacity="0.75"/>
<ellipse id="Ellipse 22" rx="3.02147" ry="2.98717" transform="matrix(-1 0 0 1 61.5368 973.931)" fill="white" fill-opacity="0.75"/>
<ellipse id="Ellipse 23" rx="3.02147" ry="2.98717" transform="matrix(-1 0 0 1 61.5368 1003.8)" fill="white" fill-opacity="0.75"/>
<ellipse id="Ellipse 24" rx="3.02147" ry="2.98717" transform="matrix(-1 0 0 1 61.5368 1034.87)" fill="white" fill-opacity="0.75"/>
<ellipse id="Ellipse 25" rx="3.02147" ry="2.98717" transform="matrix(-1 0 0 1 37.3651 820.987)" fill="white" fill-opacity="0.75"/>
<ellipse id="Ellipse 26" rx="3.02147" ry="2.98717" transform="matrix(-1 0 0 1 37.3651 852.054)" fill="white" fill-opacity="0.75"/>
<ellipse id="Ellipse 27" rx="3.02147" ry="2.98717" transform="matrix(-1 0 0 1 37.3651 881.926)" fill="white" fill-opacity="0.75"/>
<ellipse id="Ellipse 28" rx="3.02147" ry="2.98717" transform="matrix(-1 0 0 1 37.3651 912.992)" fill="white" fill-opacity="0.75"/>
<ellipse id="Ellipse 29" rx="3.02147" ry="2.98717" transform="matrix(-1 0 0 1 37.3651 942.864)" fill="white" fill-opacity="0.75"/>
<ellipse id="Ellipse 30" rx="3.02147" ry="2.98717" transform="matrix(-1 0 0 1 37.3651 973.931)" fill="white" fill-opacity="0.75"/>
<ellipse id="Ellipse 31" rx="3.02147" ry="2.98717" transform="matrix(-1 0 0 1 37.3651 1003.8)" fill="white" fill-opacity="0.75"/>
<ellipse id="Ellipse 32" rx="3.02147" ry="2.98717" transform="matrix(-1 0 0 1 37.3651 1034.87)" fill="white" fill-opacity="0.75"/>
<ellipse id="Ellipse 33" rx="3.02147" ry="2.98717" transform="matrix(-1 0 0 1 13.1934 820.987)" fill="white" fill-opacity="0.75"/>
<ellipse id="Ellipse 34" rx="3.02147" ry="2.98717" transform="matrix(-1 0 0 1 13.1933 852.054)" fill="white" fill-opacity="0.75"/>
<ellipse id="Ellipse 35" rx="3.02147" ry="2.98717" transform="matrix(-1 0 0 1 13.1933 881.926)" fill="white" fill-opacity="0.75"/>
<ellipse id="Ellipse 36" rx="3.02147" ry="2.98717" transform="matrix(-1 0 0 1 13.1933 912.992)" fill="white" fill-opacity="0.75"/>
<ellipse id="Ellipse 37" rx="3.02147" ry="2.98717" transform="matrix(-1 0 0 1 13.1933 942.864)" fill="white" fill-opacity="0.75"/>
<ellipse id="Ellipse 38" rx="3.02147" ry="2.98717" transform="matrix(-1 0 0 1 13.1933 973.931)" fill="white" fill-opacity="0.75"/>
<ellipse id="Ellipse 39" rx="3.02147" ry="2.98717" transform="matrix(-1 0 0 1 13.1933 1003.8)" fill="white" fill-opacity="0.75"/>
<ellipse id="Ellipse 40" rx="3.02147" ry="2.98717" transform="matrix(-1 0 0 1 13.1933 1034.87)" fill="white" fill-opacity="0.75"/>
<ellipse id="Ellipse 49" rx="3.02147" ry="2.98717" transform="matrix(-1 0 0 1 134.052 820.987)" fill="white" fill-opacity="0.75"/>
<ellipse id="Ellipse 50" rx="3.02147" ry="2.98717" transform="matrix(-1 0 0 1 134.052 852.054)" fill="white" fill-opacity="0.75"/>
<ellipse id="Ellipse 51" rx="3.02147" ry="2.98717" transform="matrix(-1 0 0 1 134.052 881.926)" fill="white" fill-opacity="0.75"/>
<ellipse id="Ellipse 52" rx="3.02147" ry="2.98717" transform="matrix(-1 0 0 1 134.052 912.992)" fill="white" fill-opacity="0.75"/>
<ellipse id="Ellipse 53" rx="3.02147" ry="2.98717" transform="matrix(-1 0 0 1 134.052 942.864)" fill="white" fill-opacity="0.75"/>
<ellipse id="Ellipse 54" rx="3.02147" ry="2.98717" transform="matrix(-1 0 0 1 134.052 973.931)" fill="white" fill-opacity="0.75"/>
<ellipse id="Ellipse 55" rx="3.02147" ry="2.98717" transform="matrix(-1 0 0 1 134.052 1003.8)" fill="white" fill-opacity="0.75"/>
<ellipse id="Ellipse 56" rx="3.02147" ry="2.98717" transform="matrix(-1 0 0 1 134.052 1034.87)" fill="white" fill-opacity="0.75"/>
<ellipse id="Ellipse 57" rx="3.02147" ry="2.98717" transform="matrix(-1 0 0 1 158.224 820.987)" fill="white" fill-opacity="0.75"/>
<ellipse id="Ellipse 58" rx="3.02147" ry="2.98717" transform="matrix(-1 0 0 1 158.224 852.054)" fill="white" fill-opacity="0.75"/>
<ellipse id="Ellipse 59" rx="3.02147" ry="2.98717" transform="matrix(-1 0 0 1 158.224 881.926)" fill="white" fill-opacity="0.75"/>
<ellipse id="Ellipse 60" rx="3.02147" ry="2.98717" transform="matrix(-1 0 0 1 158.224 912.992)" fill="white" fill-opacity="0.75"/>
<ellipse id="Ellipse 61" rx="3.02147" ry="2.98717" transform="matrix(-1 0 0 1 158.224 942.864)" fill="white" fill-opacity="0.75"/>
<ellipse id="Ellipse 62" rx="3.02147" ry="2.98717" transform="matrix(-1 0 0 1 158.224 973.931)" fill="white" fill-opacity="0.75"/>
<ellipse id="Ellipse 63" rx="3.02147" ry="2.98717" transform="matrix(-1 0 0 1 158.224 1003.8)" fill="white" fill-opacity="0.75"/>
<ellipse id="Ellipse 64" rx="3.02147" ry="2.98717" transform="matrix(-1 0 0 1 158.224 1034.87)" fill="white" fill-opacity="0.75"/>
<ellipse id="Ellipse 65" rx="3.02147" ry="2.98717" transform="matrix(-1 0 0 1 182.396 820.987)" fill="white" fill-opacity="0.75"/>
<ellipse id="Ellipse 66" rx="3.02147" ry="2.98717" transform="matrix(-1 0 0 1 182.396 852.054)" fill="white" fill-opacity="0.75"/>
<ellipse id="Ellipse 67" rx="3.02147" ry="2.98717" transform="matrix(-1 0 0 1 182.396 881.926)" fill="white" fill-opacity="0.75"/>
<ellipse id="Ellipse 68" rx="3.02147" ry="2.98717" transform="matrix(-1 0 0 1 182.396 912.992)" fill="white" fill-opacity="0.75"/>
<ellipse id="Ellipse 69" rx="3.02147" ry="2.98717" transform="matrix(-1 0 0 1 182.396 942.864)" fill="white" fill-opacity="0.75"/>
<ellipse id="Ellipse 70" rx="3.02147" ry="2.98717" transform="matrix(-1 0 0 1 182.396 973.931)" fill="white" fill-opacity="0.75"/>
<ellipse id="Ellipse 71" rx="3.02147" ry="2.98717" transform="matrix(-1 0 0 1 182.396 1003.8)" fill="white" fill-opacity="0.75"/>
<ellipse id="Ellipse 72" rx="3.02147" ry="2.98717" transform="matrix(-1 0 0 1 182.396 1034.87)" fill="white" fill-opacity="0.75"/>
<ellipse id="Ellipse 73" rx="3.02147" ry="2.98717" transform="matrix(-1 0 0 1 206.567 820.987)" fill="white" fill-opacity="0.75"/>
<ellipse id="Ellipse 74" rx="3.02147" ry="2.98717" transform="matrix(-1 0 0 1 206.567 852.054)" fill="white" fill-opacity="0.75"/>
<ellipse id="Ellipse 75" rx="3.02147" ry="2.98717" transform="matrix(-1 0 0 1 206.567 881.926)" fill="white" fill-opacity="0.75"/>
<ellipse id="Ellipse 76" rx="3.02147" ry="2.98717" transform="matrix(-1 0 0 1 206.567 912.992)" fill="white" fill-opacity="0.75"/>
<ellipse id="Ellipse 77" rx="3.02147" ry="2.98717" transform="matrix(-1 0 0 1 206.567 942.864)" fill="white" fill-opacity="0.75"/>
<ellipse id="Ellipse 78" rx="3.02147" ry="2.98717" transform="matrix(-1 0 0 1 206.567 973.931)" fill="white" fill-opacity="0.75"/>
<ellipse id="Ellipse 79" rx="3.02147" ry="2.98717" transform="matrix(-1 0 0 1 206.567 1003.8)" fill="white" fill-opacity="0.75"/>
<ellipse id="Ellipse 80" rx="3.02147" ry="2.98717" transform="matrix(-1 0 0 1 206.567 1034.87)" fill="white" fill-opacity="0.75"/>
</g>
<g id="DotGridTop">
<ellipse id="Ellipse 1_2" rx="3.02147" ry="2.98717" transform="matrix(-1 0 0 1 390.88 254.987)" fill="#AA95E4"/>
<ellipse id="Ellipse 2_2" rx="3.02147" ry="2.98717" transform="matrix(-1 0 0 1 390.88 286.054)" fill="#AA95E4"/>
<ellipse id="Ellipse 3_2" rx="3.02147" ry="2.98717" transform="matrix(-1 0 0 1 390.88 315.926)" fill="#AA95E4"/>
<ellipse id="Ellipse 4_2" rx="3.02147" ry="2.98717" transform="matrix(-1 0 0 1 390.88 346.992)" fill="#AA95E4"/>
<ellipse id="Ellipse 5_2" rx="3.02147" ry="2.98717" transform="matrix(-1 0 0 1 390.88 376.864)" fill="#AA95E4"/>
<ellipse id="Ellipse 6_2" rx="3.02147" ry="2.98717" transform="matrix(-1 0 0 1 390.88 407.931)" fill="#AA95E4"/>
<ellipse id="Ellipse 7_2" rx="3.02147" ry="2.98717" transform="matrix(-1 0 0 1 390.88 437.802)" fill="#AA95E4"/>
<ellipse id="Ellipse 8_2" rx="3.02147" ry="2.98717" transform="matrix(-1 0 0 1 390.88 468.869)" fill="#AA95E4"/>
<ellipse id="Ellipse 9_2" rx="3.02147" ry="2.98717" transform="matrix(-1 0 0 1 366.708 254.987)" fill="#AA95E4"/>
<ellipse id="Ellipse 10_2" rx="3.02147" ry="2.98717" transform="matrix(-1 0 0 1 366.708 286.054)" fill="#AA95E4"/>
<ellipse id="Ellipse 11_2" rx="3.02147" ry="2.98717" transform="matrix(-1 0 0 1 366.708 315.926)" fill="#AA95E4"/>
<ellipse id="Ellipse 12_2" rx="3.02147" ry="2.98717" transform="matrix(-1 0 0 1 366.708 346.992)" fill="#AA95E4"/>
<ellipse id="Ellipse 13_2" rx="3.02147" ry="2.98717" transform="matrix(-1 0 0 1 366.708 376.864)" fill="#AA95E4"/>
<ellipse id="Ellipse 14_2" rx="3.02147" ry="2.98717" transform="matrix(-1 0 0 1 366.708 407.931)" fill="#AA95E4"/>
<ellipse id="Ellipse 15_2" rx="3.02147" ry="2.98717" transform="matrix(-1 0 0 1 366.708 437.802)" fill="#AA95E4"/>
<ellipse id="Ellipse 16_2" rx="3.02147" ry="2.98717" transform="matrix(-1 0 0 1 366.708 468.869)" fill="#AA95E4"/>
<ellipse id="Ellipse 17_2" rx="3.02147" ry="2.98717" transform="matrix(-1 0 0 1 342.537 254.987)" fill="#AA95E4"/>
<ellipse id="Ellipse 18_2" rx="3.02147" ry="2.98717" transform="matrix(-1 0 0 1 342.537 286.054)" fill="#AA95E4"/>
<ellipse id="Ellipse 19_2" rx="3.02147" ry="2.98717" transform="matrix(-1 0 0 1 342.537 315.926)" fill="#AA95E4"/>
<ellipse id="Ellipse 20_2" rx="3.02147" ry="2.98717" transform="matrix(-1 0 0 1 342.537 346.992)" fill="#AA95E4"/>
<ellipse id="Ellipse 21_2" rx="3.02147" ry="2.98717" transform="matrix(-1 0 0 1 342.537 376.864)" fill="#AA95E4"/>
<ellipse id="Ellipse 22_2" rx="3.02147" ry="2.98717" transform="matrix(-1 0 0 1 342.537 407.931)" fill="#AA95E4"/>
<ellipse id="Ellipse 23_2" rx="3.02147" ry="2.98717" transform="matrix(-1 0 0 1 342.537 437.802)" fill="#AA95E4"/>
<ellipse id="Ellipse 24_2" rx="3.02147" ry="2.98717" transform="matrix(-1 0 0 1 342.537 468.869)" fill="#AA95E4"/>
<ellipse id="Ellipse 25_2" rx="3.02147" ry="2.98717" transform="matrix(-1 0 0 1 318.365 254.987)" fill="#AA95E4"/>
<ellipse id="Ellipse 26_2" rx="3.02147" ry="2.98717" transform="matrix(-1 0 0 1 318.365 286.054)" fill="#AA95E4"/>
<ellipse id="Ellipse 27_2" rx="3.02147" ry="2.98717" transform="matrix(-1 0 0 1 318.365 315.926)" fill="#AA95E4"/>
<ellipse id="Ellipse 28_2" rx="3.02147" ry="2.98717" transform="matrix(-1 0 0 1 318.365 346.992)" fill="#AA95E4"/>
<ellipse id="Ellipse 29_2" rx="3.02147" ry="2.98717" transform="matrix(-1 0 0 1 318.365 376.864)" fill="#AA95E4"/>
<ellipse id="Ellipse 30_2" rx="3.02147" ry="2.98717" transform="matrix(-1 0 0 1 318.365 407.931)" fill="#AA95E4"/>
<ellipse id="Ellipse 31_2" rx="3.02147" ry="2.98717" transform="matrix(-1 0 0 1 318.365 437.802)" fill="#AA95E4"/>
<ellipse id="Ellipse 32_2" rx="3.02147" ry="2.98717" transform="matrix(-1 0 0 1 318.365 468.869)" fill="#AA95E4"/>
<ellipse id="Ellipse 33_2" rx="3.02147" ry="2.98717" transform="matrix(-1 0 0 1 294.193 254.987)" fill="#AA95E4"/>
<ellipse id="Ellipse 34_2" rx="3.02147" ry="2.98717" transform="matrix(-1 0 0 1 294.193 286.054)" fill="#AA95E4"/>
<ellipse id="Ellipse 35_2" rx="3.02147" ry="2.98717" transform="matrix(-1 0 0 1 294.193 315.926)" fill="#AA95E4"/>
<ellipse id="Ellipse 36_2" rx="3.02147" ry="2.98717" transform="matrix(-1 0 0 1 294.193 346.992)" fill="#AA95E4"/>
<ellipse id="Ellipse 37_2" rx="3.02147" ry="2.98717" transform="matrix(-1 0 0 1 294.193 376.864)" fill="#AA95E4"/>
<ellipse id="Ellipse 38_2" rx="3.02147" ry="2.98717" transform="matrix(-1 0 0 1 294.193 407.931)" fill="#AA95E4"/>
<ellipse id="Ellipse 39_2" rx="3.02147" ry="2.98717" transform="matrix(-1 0 0 1 294.193 437.802)" fill="#AA95E4"/>
<ellipse id="Ellipse 40_2" rx="3.02147" ry="2.98717" transform="matrix(-1 0 0 1 294.193 468.869)" fill="#AA95E4"/>
<ellipse id="Ellipse 41" rx="3.02147" ry="2.98717" transform="matrix(-1 0 0 1 270.021 254.987)" fill="#AA95E4"/>
<ellipse id="Ellipse 42" rx="3.02147" ry="2.98717" transform="matrix(-1 0 0 1 270.022 286.054)" fill="#AA95E4"/>
<ellipse id="Ellipse 43" rx="3.02147" ry="2.98717" transform="matrix(-1 0 0 1 270.022 315.926)" fill="#AA95E4"/>
<ellipse id="Ellipse 44" rx="3.02147" ry="2.98717" transform="matrix(-1 0 0 1 270.022 346.992)" fill="#AA95E4"/>
<ellipse id="Ellipse 45" rx="3.02147" ry="2.98717" transform="matrix(-1 0 0 1 270.022 376.864)" fill="#AA95E4"/>
<ellipse id="Ellipse 46" rx="3.02147" ry="2.98717" transform="matrix(-1 0 0 1 270.022 407.931)" fill="#AA95E4"/>
<ellipse id="Ellipse 47" rx="3.02147" ry="2.98717" transform="matrix(-1 0 0 1 270.022 437.802)" fill="#AA95E4"/>
<ellipse id="Ellipse 48" rx="3.02147" ry="2.98717" transform="matrix(-1 0 0 1 270.022 468.869)" fill="#AA95E4"/>
<ellipse id="Ellipse 49_2" rx="3.02147" ry="2.98717" transform="matrix(-1 0 0 1 415.052 254.987)" fill="#AA95E4"/>
<ellipse id="Ellipse 50_2" rx="3.02147" ry="2.98717" transform="matrix(-1 0 0 1 415.052 286.054)" fill="#AA95E4"/>
<ellipse id="Ellipse 51_2" rx="3.02147" ry="2.98717" transform="matrix(-1 0 0 1 415.052 315.926)" fill="#AA95E4"/>
<ellipse id="Ellipse 52_2" rx="3.02147" ry="2.98717" transform="matrix(-1 0 0 1 415.052 346.992)" fill="#AA95E4"/>
<ellipse id="Ellipse 53_2" rx="3.02147" ry="2.98717" transform="matrix(-1 0 0 1 415.052 376.864)" fill="#AA95E4"/>
<ellipse id="Ellipse 54_2" rx="3.02147" ry="2.98717" transform="matrix(-1 0 0 1 415.052 407.931)" fill="#AA95E4"/>
<ellipse id="Ellipse 55_2" rx="3.02147" ry="2.98717" transform="matrix(-1 0 0 1 415.052 437.802)" fill="#AA95E4"/>
<ellipse id="Ellipse 56_2" rx="3.02147" ry="2.98717" transform="matrix(-1 0 0 1 415.052 468.869)" fill="#AA95E4"/>
<ellipse id="Ellipse 57_2" rx="3.02147" ry="2.98717" transform="matrix(-1 0 0 1 439.224 254.987)" fill="#AA95E4"/>
<ellipse id="Ellipse 58_2" rx="3.02147" ry="2.98717" transform="matrix(-1 0 0 1 439.224 286.054)" fill="#AA95E4"/>
<ellipse id="Ellipse 59_2" rx="3.02147" ry="2.98717" transform="matrix(-1 0 0 1 439.224 315.926)" fill="#AA95E4"/>
<ellipse id="Ellipse 60_2" rx="3.02147" ry="2.98717" transform="matrix(-1 0 0 1 439.224 346.992)" fill="#AA95E4"/>
<ellipse id="Ellipse 61_2" rx="3.02147" ry="2.98717" transform="matrix(-1 0 0 1 439.224 376.864)" fill="#AA95E4"/>
<ellipse id="Ellipse 62_2" rx="3.02147" ry="2.98717" transform="matrix(-1 0 0 1 439.224 407.931)" fill="#AA95E4"/>
<ellipse id="Ellipse 63_2" rx="3.02147" ry="2.98717" transform="matrix(-1 0 0 1 439.224 437.802)" fill="#AA95E4"/>
<ellipse id="Ellipse 64_2" rx="3.02147" ry="2.98717" transform="matrix(-1 0 0 1 439.224 468.869)" fill="#AA95E4"/>
<ellipse id="Ellipse 65_2" rx="3.02147" ry="2.98717" transform="matrix(-1 0 0 1 463.395 254.987)" fill="#AA95E4"/>
<ellipse id="Ellipse 66_2" rx="3.02147" ry="2.98717" transform="matrix(-1 0 0 1 463.395 286.054)" fill="#AA95E4"/>
<ellipse id="Ellipse 67_2" rx="3.02147" ry="2.98717" transform="matrix(-1 0 0 1 463.395 315.926)" fill="#AA95E4"/>
<ellipse id="Ellipse 68_2" rx="3.02147" ry="2.98717" transform="matrix(-1 0 0 1 463.395 346.992)" fill="#AA95E4"/>
<ellipse id="Ellipse 69_2" rx="3.02147" ry="2.98717" transform="matrix(-1 0 0 1 463.395 376.864)" fill="#AA95E4"/>
<ellipse id="Ellipse 70_2" rx="3.02147" ry="2.98717" transform="matrix(-1 0 0 1 463.395 407.931)" fill="#AA95E4"/>
<ellipse id="Ellipse 71_2" rx="3.02147" ry="2.98717" transform="matrix(-1 0 0 1 463.395 437.802)" fill="#AA95E4"/>
<ellipse id="Ellipse 72_2" rx="3.02147" ry="2.98717" transform="matrix(-1 0 0 1 463.395 468.869)" fill="#AA95E4"/>
<ellipse id="Ellipse 73_2" rx="3.02147" ry="2.98717" transform="matrix(-1 0 0 1 487.567 254.987)" fill="#AA95E4"/>
<ellipse id="Ellipse 74_2" rx="3.02147" ry="2.98717" transform="matrix(-1 0 0 1 487.567 286.054)" fill="#AA95E4"/>
<ellipse id="Ellipse 75_2" rx="3.02147" ry="2.98717" transform="matrix(-1 0 0 1 487.567 315.926)" fill="#AA95E4"/>
<ellipse id="Ellipse 76_2" rx="3.02147" ry="2.98717" transform="matrix(-1 0 0 1 487.567 346.992)" fill="#AA95E4"/>
<ellipse id="Ellipse 77_2" rx="3.02147" ry="2.98717" transform="matrix(-1 0 0 1 487.567 376.864)" fill="#AA95E4"/>
<ellipse id="Ellipse 78_2" rx="3.02147" ry="2.98717" transform="matrix(-1 0 0 1 487.567 407.931)" fill="#AA95E4"/>
<ellipse id="Ellipse 79_2" rx="3.02147" ry="2.98717" transform="matrix(-1 0 0 1 487.567 437.802)" fill="#AA95E4"/>
<ellipse id="Ellipse 80_2" rx="3.02147" ry="2.98717" transform="matrix(-1 0 0 1 487.567 468.869)" fill="#AA95E4"/>
</g>
<g id="Group 1">
<rect id="Rectangle 3" width="17.4689" height="17.4689" rx="5" transform="matrix(-0.713033 -0.70113 -0.713033 0.70113 179.71 418.409)" fill="#BDAAF5" fill-opacity="0.5"/>
<rect id="Rectangle 2" width="23.2919" height="23.2919" rx="5" transform="matrix(-0.713033 -0.70113 -0.713033 0.70113 65.2158 347.568)" fill="#BDAAF5" fill-opacity="0.5"/>
<rect id="Rectangle 1" width="58.2296" height="58.2296" rx="5" transform="matrix(0.713033 -0.70113 -0.713033 -0.70113 128.135 293.653)" fill="#BDAAF5" fill-opacity="0.25"/>
</g>
</g>
</g>
</svg>
